<svg xmlns="http://www.w3.org/2000/svg" version="1.1" xmlns:xlink="http://www.w3.org/1999/xlink"
    width="50" height="50" x="0" y="0" viewBox="0 0 64 64"
    style="enable-background:new 0 0 512 512" xml:space="preserve" class=""><g><path d="M36 20c-.551 0-1-.448-1-1h-2c0 1.654 1.346 3 3 3v2h2v-2h3v-3c0-1.654-1.346-3-3-3h-2c-.551 0-1-.448-1-1v-1h3c.551 0 1 .448 1 1h2c0-1.654-1.346-3-3-3v-2h-2v2h-3v3c0 1.654 1.346 3 3 3h2c.551 0 1 .448 1 1v1z" fill="#000000" data-original="#000000"></path><path d="M26.754 21c1.638 4.217 5.658 7 10.246 7 6.065 0 11-4.935 11-11S43.065 6 37 6a10.939 10.939 0 0 0-10.246 7H14.889A6.973 6.973 0 0 0 17 8c0-3.859-3.14-7-7-7S3 4.141 3 8a6.989 6.989 0 0 0 2.87 5.639C3.01 14.86 1 17.699 1 21v38c0 2.206 1.794 4 4 4 1.2 0 2.266-.542 3-1.382.734.84 1.8 1.382 3 1.382 2.206 0 4-1.794 4-4V21zM37 8c4.962 0 9 4.037 9 9s-4.038 9-9 9a8.945 8.945 0 0 1-8.253-5.419C30.075 19.93 31 18.577 31 17s-.925-2.93-2.253-3.581A8.945 8.945 0 0 1 37 8zM5 8c0-2.757 2.243-5 5-5s5 2.243 5 5-2.243 5-5 5-5-2.243-5-5zm8 51c0 1.103-.897 2-2 2s-2-.897-2-2V39.141c0-1.005.5-1.938 1.336-2.496l1.219-.812-1.109-1.664-1.219.811A4.994 4.994 0 0 0 7 39.141V59c0 1.103-.897 2-2 2s-2-.897-2-2V21c0-3.309 2.691-6 6-6h18c1.103 0 2 .897 2 2s-.897 2-2 2H11v2h2z" fill="#000000" data-original="#000000"></path><path d="M55 61h-4V47h-8v14h-4V43h-8v18h-4V51h-8v12h44V35h-8zm-30 0h-4v-8h4zm20-12h4v12h-4zm-12-4h4v16h-4zm24-8h4v24h-4z" fill="#000000" data-original="#000000"></path><path d="M49.019 37.567A3.947 3.947 0 0 0 47 37a3.994 3.994 0 0 0-3.351 1.829l-4.676-1.559c.006-.091.027-.177.027-.27 0-2.206-1.794-4-4-4s-4 1.794-4 4c0 .46.094.895.237 1.307l-5.584 3.723A3.965 3.965 0 0 0 23 41c-2.206 0-4 1.794-4 4s1.794 4 4 4 4-1.794 4-4c0-.46-.094-.895-.237-1.307l5.584-3.723A3.965 3.965 0 0 0 35 41a3.994 3.994 0 0 0 3.351-1.829l4.676 1.559c-.006.091-.027.177-.027.27 0 2.206 1.794 4 4 4s4-1.794 4-4c0-.74-.215-1.424-.567-2.019l6.548-6.548A3.947 3.947 0 0 0 59 33c2.206 0 4-1.794 4-4s-1.794-4-4-4-4 1.794-4 4c0 .74.215 1.424.567 2.019zM23 47c-1.103 0-2-.897-2-2s.897-2 2-2 2 .897 2 2-.897 2-2 2zm12-8c-1.103 0-2-.897-2-2s.897-2 2-2 2 .897 2 2-.897 2-2 2zm12 4c-1.103 0-2-.897-2-2s.897-2 2-2 2 .897 2 2-.897 2-2 2zm12-16c1.103 0 2 .897 2 2s-.897 2-2 2-2-.897-2-2 .897-2 2-2z" fill="#000000" data-original="#000000"></path></g></svg>