<?xml version="1.0" encoding="utf-8"?>
<!-- Generator: Adobe Illustrator 22.1.0, SVG Export Plug-In . SVG Version: 6.00 Build 0)  -->
<svg version="1.1" id="Layer_1" xmlns="http://www.w3.org/2000/svg" xmlns:xlink="http://www.w3.org/1999/xlink" x="0px" y="0px"
	 viewBox="0 0 170 40" style="enable-background:new 0 0 170 40;" xml:space="preserve">
<style type="text/css">
	.st0{enable-background:new    ;}
	.st1{fill:#515151;}
</style>
<g>
	<g class="st0">
		<path class="st1" d="M22.9,17.9l7.7-16.1h0.1l7.7,16.1h-3.5l-1.3-2.8h-5.9l-1.2,2.8H22.9z M28.8,12.9h3.9c-0.9-2-1.5-3.5-1.9-4.7
			c0,0.1-0.3,0.7-0.8,2S29,12.3,28.8,12.9z"/>
		<path class="st1" d="M41,2.1h5.6c1.9,0,3.4,0.5,4.5,1.4s1.6,2.2,1.6,3.8c0,1.1-0.3,2-0.8,2.8c-0.6,0.8-1.3,1.3-2.2,1.7l3.3,6.1
			h-3.6l-2.8-5.5h-2.3v5.5H41V2.1z M46.5,4.9h-2.3v4.7h2.4c0.8,0,1.4-0.2,1.8-0.6c0.5-0.4,0.7-1,0.7-1.8S49,5.8,48.5,5.4
			C48,5.1,47.3,4.9,46.5,4.9z"/>
		<path class="st1" d="M59.5,2.1v7.5l6.2-7.5h4l-5.6,6.6l5.7,9.2h-3.8l-4.2-7l-2.3,2.6v4.5h-3.4V2.1H59.5z"/>
		<path class="st1" d="M70.6,17.9l7.7-16.1h0.1l7.7,16.1h-3.5l-1.3-2.8h-5.9l-1.3,2.8H70.6z M76.4,12.9h3.9c-0.9-2-1.5-3.5-1.9-4.7
			c0,0.1-0.3,0.7-0.8,2S76.6,12.3,76.4,12.9z"/>
		<path class="st1" d="M97.3,18.3c-1.8,0-3.3-0.3-4.7-0.9v-3.3c1.3,0.7,2.6,1.1,4,1.1c0.5,0,1,0,1.4-0.1c1.3-0.2,1.9-0.7,1.9-1.4
			c0-0.5-0.2-0.9-0.7-1.3c-0.5-0.3-1.3-0.7-2.4-1.1c-1.5-0.6-2.6-1.2-3.3-1.9s-1.1-1.7-1.1-3C92.4,5,92.9,3.9,94,3
			c1.1-0.8,2.4-1.3,4.2-1.3c1.6,0,2.9,0.3,4.1,0.8v3.1c-1.1-0.6-2.4-1-3.9-1c-0.8,0-1.5,0.2-2,0.5s-0.7,0.7-0.7,1.2s0.2,0.9,0.7,1.2
			s1.2,0.7,2.3,1.2c1.5,0.6,2.7,1.3,3.4,2c0.7,0.7,1.1,1.7,1.1,2.9c0,1.4-0.5,2.6-1.6,3.4C100.6,17.8,99.2,18.3,97.3,18.3z"/>
		<path class="st1" d="M119.7,17.9h-3.4v-6.6h-6.5v6.6h-3.4V2.1h3.4v6.4h6.5V2.1h3.4V17.9z"/>
		<path class="st1" d="M127.4,17.9H124V2.1h3.4V17.9z"/>
		<path class="st1" d="M136.9,12.6h-1.8v5.4h-3.4V2.1h5.1c1.9,0,3.3,0.5,4.4,1.4c1.1,0.9,1.6,2.2,1.6,3.9s-0.5,3-1.6,3.9
			C140.2,12.2,138.7,12.6,136.9,12.6z M136.9,4.9h-1.9v4.7h1.9c0.8,0,1.4-0.2,1.8-0.6c0.4-0.4,0.7-1,0.7-1.7c0-0.8-0.2-1.4-0.7-1.8
			C138.4,5.1,137.7,4.9,136.9,4.9z"/>
	</g>
	<g class="st0">
		<path class="st1" d="M9.6,33.5c-0.4-0.4-0.7-0.8-1.1-1.2c-0.4-0.4-0.8-0.9-1.3-1.4S6.3,30,6.1,29.8L5.2,29V38H2V21.8H2l7.5,7.6
			l7.5-7.6h0.1V38H14V29l-0.8,0.7C11.9,31,10.8,32.3,9.6,33.5z"/>
		<path class="st1" d="M19.6,38l7.7-16.1h0.1L35.1,38h-3.5l-1.3-2.8h-5.9L23.2,38H19.6z M25.4,32.8h3.9c-0.9-2-1.5-3.5-1.9-4.7
			c0,0.1-0.3,0.7-0.8,2S25.8,32.3,25.4,32.8z"/>
		<path class="st1" d="M50.8,38.3L50.8,38.3L42,29.8l-1-0.9v9h-3.3V21.8h0.1l8.7,8.3l1,0.9v-9h3.3V38.3z"/>
		<path class="st1" d="M53.3,38L61,21.9h0.1L68.8,38h-3.5L64,35.2h-6L56.8,38H53.3z M59.1,32.8H63c-0.9-2-1.5-3.5-1.9-4.7
			c0,0.1-0.3,0.7-0.8,2S59.3,32.3,59.1,32.8z"/>
		<path class="st1" d="M83.6,37c-1.6,0.8-3.4,1.2-5.4,1.2c-2.5,0-4.5-0.8-6.1-2.4c-1.6-1.6-2.4-3.5-2.4-5.9c0-2.3,0.8-4.3,2.4-5.9
			c1.6-1.6,3.6-2.4,6-2.4c1.8,0,3.4,0.4,5,1.1V26c-1.6-0.7-3.2-1.1-4.8-1.1c-1.6,0-2.9,0.5-3.8,1.5c-1,1-1.4,2.2-1.4,3.7
			s0.5,2.7,1.4,3.7s2.2,1.5,3.7,1.5c0.8,0,1.5-0.1,2.2-0.3v-4.2h3.2L83.6,37L83.6,37z"/>
		<path class="st1" d="M97.7,38H87.2V22.1h10.2v2.8h-6.8v3.6h5.8v2.7h-5.8V35h7.1C97.6,35,97.6,38,97.7,38z"/>
		<path class="st1" d="M108.6,33.5c-0.4-0.4-0.7-0.8-1.1-1.2c-0.4-0.4-0.8-0.9-1.3-1.4s-0.8-0.9-1.1-1.2l-0.8-0.7v8.9h-3.2V21.8h0.1
			l7.5,7.6l7.5-7.6h0.1V38h-3.2V29l-0.8,0.7C111,31,109.8,32.3,108.6,33.5z"/>
		<path class="st1" d="M130.9,38h-10.5V22.1h10.2v2.8h-6.8v3.6h5.8v2.7h-5.8V35h7.1V38z"/>
		<path class="st1" d="M147.4,38.3h-0.1l-8.7-8.3l-1-0.9v9h-3.3V21.8h0.1l8.7,8.3l1,0.9v-9h3.3V38.3z"/>
		<path class="st1" d="M162.6,24.9h-4.5v13h-3.4V25h-4.4v-2.8h12.3L162.6,24.9L162.6,24.9z"/>
		<path class="st1" d="M164.4,36.5c0-0.5,0.2-1,0.5-1.3s0.8-0.5,1.3-0.5c0.6,0,1,0.2,1.3,0.5s0.5,0.8,0.5,1.3s-0.2,1-0.5,1.3
			s-0.8,0.5-1.3,0.5c-0.6,0-1-0.2-1.3-0.5S164.4,37,164.4,36.5z"/>
	</g>
</g>
</svg>
