<?xml version="1.0" encoding="utf-8"?>
<!-- Generator: Adobe Illustrator 22.1.0, SVG Export Plug-In . SVG Version: 6.00 Build 0)  -->
<svg version="1.1" id="Layer_1" xmlns="http://www.w3.org/2000/svg" xmlns:xlink="http://www.w3.org/1999/xlink" x="0px" y="0px"
	 viewBox="0 0 215 40" style="enable-background:new 0 0 215 40;" xml:space="preserve">
<style type="text/css">
	.st0{enable-background:new    ;}
	.st1{fill:#515151;}
</style>
<g class="st0">
	<path class="st1" d="M15.8,3v3.1C14.4,5.4,12.9,5,11.4,5C9.9,5,8.6,5.5,7.6,6.5c-1,1-1.4,2.2-1.4,3.7s0.5,2.7,1.4,3.7
		c0.9,1,2.2,1.5,3.7,1.5c1.6,0,3.2-0.4,4.6-1.1v3.1c-1.3,0.7-2.9,1.1-4.8,1.1c-2.4,0-4.3-0.8-5.9-2.4c-1.6-1.6-2.4-3.5-2.4-5.9
		s0.8-4.3,2.4-5.9c1.6-1.6,3.6-2.4,6-2.4C12.9,1.9,14.5,2.3,15.8,3z"/>
	<path class="st1" d="M18.2,10.2c0-2.3,0.8-4.3,2.4-5.8c1.6-1.6,3.6-2.4,5.9-2.4c2.4,0,4.3,0.8,5.9,2.4c1.6,1.6,2.4,3.5,2.4,5.8
		c0,2.3-0.8,4.3-2.4,5.9c-1.6,1.6-3.6,2.4-5.9,2.4s-4.4-0.8-5.9-2.4C19,14.4,18.2,12.5,18.2,10.2z M21.6,10.2c0,1.4,0.5,2.7,1.4,3.6
		c0.9,1,2.1,1.5,3.5,1.5c1.4,0,2.6-0.5,3.5-1.5c0.9-1,1.4-2.2,1.4-3.6c0-1.4-0.5-2.6-1.4-3.6C29,5.5,27.9,5,26.5,5
		c-1.4,0-2.6,0.5-3.5,1.5S21.6,8.7,21.6,10.2z"/>
	<path class="st1" d="M50.6,3v3.1C49.2,5.4,47.7,5,46.3,5c-1.6,0-2.8,0.5-3.8,1.5c-1,1-1.4,2.2-1.4,3.7s0.5,2.7,1.4,3.7
		c0.9,1,2.2,1.5,3.7,1.5c1.6,0,3.2-0.4,4.6-1.1v3.1c-1.3,0.7-2.9,1.1-4.8,1.1c-2.4,0-4.3-0.8-5.9-2.4c-1.6-1.6-2.4-3.5-2.4-5.9
		s0.8-4.3,2.4-5.9c1.6-1.6,3.6-2.4,6-2.4C47.8,1.9,49.3,2.3,50.6,3z"/>
	<path class="st1" d="M67.3,18.1h-3.4v-6.6h-6.5v6.6H54V2.2h3.4v6.4h6.5V2.2h3.4V18.1z"/>
	<path class="st1" d="M75,18.1h-3.4V2.2H75V18.1z"/>
	<path class="st1" d="M92.5,18.3h-0.1L83.7,10l-1-0.9v9h-3.3V2h0.1l8.7,8.3l1,0.9v-9h3.3V18.3z"/>
	<path class="st1" d="M105.6,18.4c-1.8,0-3.3-0.3-4.7-0.9v-3.3c1.3,0.7,2.6,1.1,4,1.1c0.5,0,1,0,1.4-0.1c1.3-0.2,1.9-0.7,1.9-1.4
		c0-0.5-0.2-0.9-0.7-1.3c-0.5-0.3-1.3-0.7-2.4-1.1c-1.5-0.6-2.6-1.2-3.3-1.9s-1.1-1.7-1.1-3c0-1.4,0.5-2.5,1.6-3.4s2.4-1.3,4.2-1.3
		c1.6,0,2.9,0.3,4.1,0.8v3.1c-1.1-0.6-2.4-1-3.9-1c-0.8,0-1.5,0.2-2,0.5s-0.7,0.7-0.7,1.2c0,0.5,0.2,0.9,0.7,1.2
		c0.5,0.4,1.2,0.7,2.3,1.2c1.5,0.6,2.7,1.3,3.4,2c0.7,0.7,1.1,1.7,1.1,2.9c0,1.4-0.5,2.6-1.6,3.4C108.9,18,107.4,18.4,105.6,18.4z"
		/>
	<path class="st1" d="M127.9,18.1h-3.4v-6.6H118v6.6h-3.4V2.2h3.4v6.4h6.5V2.2h3.4V18.1z"/>
	<path class="st1" d="M135.6,18.1h-3.4V2.2h3.4V18.1z"/>
	<path class="st1" d="M145.1,12.7h-1.8v5.4H140V2.2h5.1c1.9,0,3.3,0.5,4.4,1.4c1.1,0.9,1.6,2.2,1.6,3.9s-0.5,3-1.6,3.9
		C148.5,12.2,147,12.7,145.1,12.7z M145.2,5.1h-1.8v4.7h1.9c0.8,0,1.4-0.2,1.8-0.6c0.4-0.4,0.7-1,0.7-1.7c0-0.8-0.2-1.4-0.7-1.8
		C146.6,5.3,146,5.1,145.2,5.1z"/>
	<path class="st1" d="M152,2.2h3.8l3.6,6.5l3.6-6.5h3.8l-5.8,9.7v6.1h-3.4v-6.1L152,2.2z"/>
	<path class="st1" d="M165.1,18.1L172.8,2h0.1l7.7,16.1h-3.5l-1.3-2.8h-5.9l-1.2,2.8H165.1z M170.9,12.9h3.9c-0.9-2-1.5-3.5-1.9-4.7
		c0,0.1-0.3,0.7-0.8,2S171.2,12.3,170.9,12.9z"/>
	<path class="st1" d="M183.1,2.2h5.6c1.9,0,3.4,0.5,4.5,1.4c1.1,0.9,1.6,2.2,1.6,3.8c0,1.1-0.3,2-0.8,2.8c-0.5,0.8-1.3,1.3-2.2,1.7
		l3.3,6.1h-3.6l-2.8-5.5h-2.3v5.5h-3.3V2.2z M188.7,5.1h-2.3v4.7h2.4c0.8,0,1.4-0.2,1.8-0.6c0.5-0.4,0.7-1,0.7-1.8s-0.2-1.4-0.7-1.8
		C190.2,5.3,189.5,5.1,188.7,5.1z"/>
	<path class="st1" d="M203.4,18.1h-5.1V2.2h5.1c2.7,0,4.8,0.7,6.4,2.2c1.6,1.5,2.4,3.4,2.4,5.7s-0.8,4.3-2.4,5.7
		C208.2,17.3,206.1,18.1,203.4,18.1z M203.3,5.1h-1.6v10.2h1.7c1.7,0,3-0.5,3.9-1.4c1-1,1.5-2.2,1.5-3.7c0-1.5-0.5-2.7-1.5-3.6
		C206.3,5.6,205,5.1,203.3,5.1z"/>
</g>
<g class="st0">
	<path class="st1" d="M71.3,38.1h-9.5V22.2h3.4v13h6.1V38.1z"/>
	<path class="st1" d="M77.7,38.1h-3.4V22.2h3.4V38.1z"/>
	<path class="st1" d="M89.6,33.7c-0.4-0.4-0.7-0.8-1.1-1.2c-0.4-0.4-0.8-0.9-1.3-1.4s-0.8-0.9-1.1-1.2l-0.8-0.7v8.9H82V22H82
		l7.5,7.6l7.5-7.6h0.1v16.1H94v-8.9l-0.8,0.7C92,31.2,90.8,32.4,89.6,33.7z"/>
	<path class="st1" d="M104.9,38.1h-3.4V22.2h3.4V38.1z"/>
	<path class="st1" d="M120,25.1h-4.4v13h-3.4v-13h-4.4v-2.8H120V25.1z"/>
	<path class="st1" d="M133.3,38.1h-10.5V22.2H133v2.8h-6.8v3.6h5.8v2.7h-5.8v3.8h7.1V38.1z"/>
	<path class="st1" d="M141.7,38.1h-5.1V22.2h5.1c2.7,0,4.8,0.7,6.4,2.2s2.4,3.4,2.4,5.7s-0.8,4.3-2.4,5.7
		C146.5,37.3,144.4,38.1,141.7,38.1z M141.6,25.1H140v10.2h1.7c1.7,0,3-0.5,3.9-1.4c1-1,1.5-2.2,1.5-3.7c0-1.5-0.5-2.7-1.5-3.6
		C144.6,25.6,143.3,25.1,141.6,25.1z"/>
</g>
</svg>
