<?xml version="1.0" encoding="utf-8"?>
<!-- Generator: Adobe Illustrator 22.1.0, SVG Export Plug-In . SVG Version: 6.00 Build 0)  -->
<svg version="1.1" id="Layer_1" xmlns="http://www.w3.org/2000/svg" xmlns:xlink="http://www.w3.org/1999/xlink" x="0px" y="0px"
	 viewBox="0 0 170 40" style="enable-background:new 0 0 170 40;" xml:space="preserve">
<style type="text/css">
	.st0{enable-background:new    ;}
	.st1{fill:#515151;}
</style>
<g class="st0">
	<path class="st1" d="M60.9,5.2h-6.3V9h5.3v2.8h-5.3v6.4h-3.4V2.4h9.7V5.2z"/>
	<path class="st1" d="M73.5,18.3h-9.5V2.4h3.4v13h6.1V18.3z"/>
	<path class="st1" d="M87,18.3H76.5V2.4h10.2v2.8h-6.8v3.6h5.8v2.7h-5.8v3.8H87V18.3z"/>
	<path class="st1" d="M100.9,18.3H90.3V2.4h10.2v2.8h-6.8v3.6h5.8v2.7h-5.8v3.8h7.1V18.3z"/>
	<path class="st1" d="M114.9,5.2h-4.4v13h-3.4v-13h-4.4V2.4h12.3V5.2z"/>
</g>
<g class="st0">
	<path class="st1" d="M9.5,33.9c-0.4-0.4-0.7-0.8-1.1-1.2c-0.4-0.4-0.8-0.9-1.3-1.4S6.2,30.4,6,30.1l-0.8-0.7v8.9H1.9V22.2H2
		l7.5,7.6l7.5-7.6h0.1v16.1h-3.2v-8.9l-0.8,0.7C11.9,31.3,10.7,32.6,9.5,33.9z"/>
	<path class="st1" d="M19.6,38.3l7.7-16.1h0.1l7.7,16.1h-3.5l-1.3-2.8h-5.9l-1.2,2.8H19.6z M25.4,33.1h3.9c-0.9-2-1.5-3.5-1.9-4.7
		c0,0.1-0.3,0.7-0.8,2S25.7,32.5,25.4,33.1z"/>
	<path class="st1" d="M50.8,38.5h-0.1L42,30.2l-1-0.9v9h-3.3V22.2h0.1l8.7,8.3l1,0.9v-9h3.3V38.5z"/>
	<path class="st1" d="M53.3,38.3l7.7-16.1h0.1l7.7,16.1h-3.5l-1.3-2.8H58l-1.2,2.8H53.3z M59.1,33.1h3.9c-0.9-2-1.5-3.5-1.9-4.7
		c0,0.1-0.3,0.7-0.8,2S59.3,32.5,59.1,33.1z"/>
	<path class="st1" d="M83.5,37.3c-1.6,0.8-3.4,1.2-5.4,1.2c-2.5,0-4.5-0.8-6.1-2.4s-2.4-3.5-2.4-5.9c0-2.3,0.8-4.3,2.4-5.9
		c1.6-1.6,3.6-2.4,6-2.4c1.8,0,3.4,0.4,5,1.1v3.1c-1.6-0.7-3.2-1.1-4.8-1.1c-1.6,0-2.9,0.5-3.8,1.5c-1,1-1.4,2.2-1.4,3.7
		c0,1.5,0.5,2.7,1.4,3.7s2.2,1.5,3.7,1.5c0.8,0,1.5-0.1,2.2-0.3v-4.2h3.2V37.3z"/>
	<path class="st1" d="M97.6,38.3H87.1V22.4h10.2v2.8h-6.8v3.6h5.8v2.7h-5.8v3.8h7.1V38.3z"/>
	<path class="st1" d="M108.5,33.9c-0.4-0.4-0.7-0.8-1.1-1.2c-0.4-0.4-0.8-0.9-1.3-1.4s-0.8-0.9-1.1-1.2l-0.8-0.7v8.9h-3.2V22.2h0.1
		l7.5,7.6l7.5-7.6h0.1v16.1h-3.2v-8.9l-0.8,0.7C110.9,31.3,109.7,32.6,108.5,33.9z"/>
	<path class="st1" d="M130.9,38.3h-10.5V22.4h10.2v2.8h-6.8v3.6h5.8v2.7h-5.8v3.8h7.1V38.3z"/>
	<path class="st1" d="M147.4,38.5h-0.1l-8.7-8.3l-1-0.9v9h-3.3V22.2h0.1l8.7,8.3l1,0.9v-9h3.3V38.5z"/>
	<path class="st1" d="M162.5,25.2H158v13h-3.4v-13h-4.4v-2.8h12.3V25.2z"/>
	<path class="st1" d="M164.4,36.8c0-0.5,0.2-1,0.5-1.3c0.3-0.3,0.8-0.5,1.3-0.5s1,0.2,1.3,0.5c0.3,0.3,0.5,0.8,0.5,1.3
		c0,0.5-0.2,1-0.5,1.3c-0.3,0.3-0.8,0.5-1.3,0.5c-0.6,0-1-0.2-1.3-0.5S164.4,37.3,164.4,36.8z"/>
</g>
</svg>
