<?xml version="1.0" encoding="utf-8"?>
<!-- Generator: Adobe Illustrator 22.1.0, SVG Export Plug-In . SVG Version: 6.00 Build 0)  -->
<svg version="1.1" id="Layer_1" xmlns="http://www.w3.org/2000/svg" xmlns:xlink="http://www.w3.org/1999/xlink" x="0px" y="0px"
	 viewBox="0 0 355 40" style="enable-background:new 0 0 355 40;" xml:space="preserve">
<style type="text/css">
	.st0{enable-background:new    ;}
	.st1{fill:#515151;}
</style>
<g class="st0">
	<path class="st1" d="M16.2,16.9c-1.6,0.8-3.4,1.2-5.4,1.2c-2.5,0-4.5-0.8-6.1-2.4c-1.6-1.6-2.4-3.5-2.4-5.9c0-2.3,0.8-4.3,2.4-5.9
		c1.6-1.6,3.6-2.4,6-2.4c1.8,0,3.4,0.4,5,1.1v3.1c-1.6-0.7-3.2-1.1-4.8-1.1c-1.6,0-2.9,0.5-3.8,1.5c-1,1-1.4,2.2-1.4,3.7
		c0,1.5,0.5,2.7,1.4,3.7c0.9,1,2.2,1.5,3.7,1.5c0.8,0,1.5-0.1,2.2-0.3v-4.2h3.2V16.9z"/>
	<path class="st1" d="M18,17.8l7.7-16.1h0.1l7.7,16.1H30L28.7,15h-5.9l-1.2,2.8H18z M23.8,12.7h3.9c-0.9-2-1.5-3.5-1.9-4.7
		c0,0.1-0.3,0.7-0.8,2S24.1,12.1,23.8,12.7z"/>
	<path class="st1" d="M36,2h5.6c1.9,0,3.4,0.5,4.5,1.4s1.6,2.2,1.6,3.8c0,1.1-0.3,2-0.8,2.8c-0.6,0.8-1.3,1.3-2.2,1.7l3.3,6.1h-3.6
		l-2.8-5.5h-2.3v5.5H36V2z M41.7,4.8h-2.3v4.7h2.4c0.8,0,1.4-0.2,1.8-0.6c0.5-0.4,0.7-1,0.7-1.8S44,5.8,43.6,5.4
		C43.1,5,42.5,4.8,41.7,4.8z"/>
	<path class="st1" d="M56.4,17.8h-5.1V2h5.1c2.7,0,4.8,0.7,6.4,2.2c1.6,1.5,2.4,3.4,2.4,5.7s-0.8,4.3-2.4,5.7
		C61.1,17.1,59,17.8,56.4,17.8z M56.3,4.8h-1.6V15h1.7c1.7,0,3-0.5,3.9-1.4c1-1,1.5-2.2,1.5-3.7c0-1.5-0.5-2.7-1.5-3.6
		C59.3,5.3,57.9,4.8,56.3,4.8z"/>
	<path class="st1" d="M79,17.8H68.4V2h10.2v2.8h-6.8v3.6h5.8v2.7h-5.8V15H79V17.8z"/>
	<path class="st1" d="M95.4,18.1h-0.1l-8.7-8.3l-1-0.9v9h-3.3V1.8h0.1l8.7,8.3l1,0.9V2h3.3V18.1z"/>
	<path class="st1" d="M104.5,2h5.6c1.9,0,3.4,0.5,4.5,1.4s1.6,2.2,1.6,3.8c0,1.1-0.3,2-0.8,2.8c-0.6,0.8-1.3,1.3-2.2,1.7l3.3,6.1
		h-3.6l-2.8-5.5h-2.3v5.5h-3.3V2z M110.1,4.8h-2.3v4.7h2.4c0.8,0,1.4-0.2,1.8-0.6c0.5-0.4,0.7-1,0.7-1.8s-0.2-1.4-0.7-1.8
		C111.6,5,110.9,4.8,110.1,4.8z"/>
	<path class="st1" d="M130.3,17.8h-10.5V2h10.2v2.8h-6.8v3.6h5.8v2.7h-5.8V15h7.1V17.8z"/>
	<path class="st1" d="M131.7,17.8l7.7-16.1h0.1l7.7,16.1h-3.5l-1.3-2.8h-5.9l-1.2,2.8H131.7z M137.5,12.7h3.9
		c-0.9-2-1.5-3.5-1.9-4.7c0,0.1-0.3,0.7-0.8,2S137.8,12.1,137.5,12.7z"/>
	<path class="st1" d="M161.1,2.8v3.1c-1.4-0.7-2.9-1.1-4.4-1.1c-1.6,0-2.8,0.5-3.8,1.5c-1,1-1.4,2.2-1.4,3.7s0.5,2.7,1.4,3.7
		c0.9,1,2.2,1.5,3.7,1.5c1.6,0,3.2-0.4,4.6-1.1v3.1c-1.3,0.7-2.9,1.1-4.8,1.1c-2.4,0-4.3-0.8-5.9-2.4c-1.6-1.6-2.4-3.5-2.4-5.9
		s0.8-4.3,2.4-5.9c1.6-1.6,3.6-2.4,6-2.4C158.2,1.7,159.7,2.1,161.1,2.8z"/>
	<path class="st1" d="M177.7,17.8h-3.4v-6.6h-6.5v6.6h-3.4V2h3.4v6.4h6.5V2h3.4V17.8z"/>
	<path class="st1" d="M190.8,18.1c-1.8,0-3.3-0.3-4.7-0.9V14c1.3,0.7,2.6,1.1,4,1.1c0.5,0,1,0,1.4-0.1c1.3-0.2,1.9-0.7,1.9-1.4
		c0-0.5-0.2-0.9-0.7-1.3c-0.5-0.3-1.3-0.7-2.4-1.1c-1.5-0.6-2.6-1.2-3.3-1.9s-1.1-1.7-1.1-3c0-1.4,0.5-2.5,1.6-3.4
		c1.1-0.8,2.4-1.3,4.2-1.3c1.6,0,2.9,0.3,4.1,0.8v3.1c-1.1-0.6-2.4-1-3.9-1c-0.8,0-1.5,0.2-2,0.5c-0.5,0.3-0.7,0.7-0.7,1.2
		c0,0.5,0.2,0.9,0.7,1.2s1.2,0.7,2.3,1.2c1.5,0.6,2.7,1.3,3.4,2c0.7,0.7,1.1,1.7,1.1,2.9c0,1.4-0.5,2.6-1.6,3.4
		C194.1,17.7,192.7,18.1,190.8,18.1z"/>
	<path class="st1" d="M213.2,17.8h-3.4v-6.6h-6.5v6.6h-3.4V2h3.4v6.4h6.5V2h3.4V17.8z"/>
	<path class="st1" d="M220.9,17.8h-3.4V2h3.4V17.8z"/>
	<path class="st1" d="M230.4,12.4h-1.8v5.4h-3.4V2h5.1c1.9,0,3.3,0.5,4.4,1.4c1.1,0.9,1.7,2.2,1.7,3.9s-0.6,3-1.7,3.9
		C233.7,12,232.2,12.4,230.4,12.4z M230.4,4.8h-1.8v4.7h1.9c0.8,0,1.4-0.2,1.8-0.6s0.7-1,0.7-1.7c0-0.8-0.2-1.4-0.7-1.8
		C231.8,5,231.2,4.8,230.4,4.8z"/>
	<path class="st1" d="M253.2,9.5c0.7,0.2,1.4,0.7,1.9,1.4c0.5,0.7,0.8,1.5,0.8,2.3c0,1.5-0.5,2.6-1.6,3.4c-1.1,0.8-2.6,1.2-4.4,1.2
		h-5.6V2h5.1c1.8,0,3.2,0.4,4.3,1.1c1.1,0.8,1.6,1.9,1.6,3.3c0,0.7-0.2,1.3-0.6,1.9C254.3,8.9,253.8,9.3,253.2,9.5z M247.5,8.6h2
		c0.5,0,1,0,1.3-0.1c0.7-0.3,1.1-0.8,1.1-1.7c0-0.6-0.2-1.1-0.6-1.5c-0.4-0.4-0.9-0.5-1.6-0.5h-2.1V8.6z M247.5,10.9v4.2h2.5
		c0.7,0,1.3-0.2,1.7-0.6s0.7-0.9,0.7-1.6s-0.2-1.2-0.6-1.6c-0.4-0.4-0.9-0.5-1.6-0.5H247.5z"/>
	<path class="st1" d="M272.3,2v10.1c0,1.9-0.6,3.3-1.8,4.4c-1.2,1.1-2.8,1.6-4.9,1.6s-3.7-0.5-4.9-1.6s-1.8-2.6-1.8-4.4V2h3.4v9.7
		c0,1,0.3,1.9,0.8,2.4c0.6,0.6,1.4,0.9,2.4,0.9c1,0,1.8-0.3,2.4-0.9c0.6-0.6,0.8-1.4,0.8-2.4V2H272.3z"/>
	<path class="st1" d="M279.8,17.8h-3.4V2h3.4V17.8z"/>
	<path class="st1" d="M293.6,17.8h-9.5V2h3.4v13h6.1V17.8z"/>
	<path class="st1" d="M301.7,17.8h-5.1V2h5.1c2.7,0,4.8,0.7,6.4,2.2c1.6,1.5,2.4,3.4,2.4,5.7s-0.8,4.3-2.4,5.7
		C306.4,17.1,304.3,17.8,301.7,17.8z M301.6,4.8h-1.6V15h1.7c1.7,0,3-0.5,3.9-1.4c1-1,1.5-2.2,1.5-3.7c0-1.5-0.5-2.7-1.5-3.6
		C304.6,5.3,303.2,4.8,301.6,4.8z"/>
	<path class="st1" d="M324.2,17.8h-10.5V2h10.2v2.8h-6.8v3.6h5.8v2.7h-5.8V15h7.1V17.8z"/>
	<path class="st1" d="M327.5,2h5.6c1.9,0,3.4,0.5,4.5,1.4c1.1,0.9,1.7,2.2,1.7,3.8c0,1.1-0.3,2-0.8,2.8c-0.6,0.8-1.3,1.3-2.2,1.7
		l3.3,6.1H336l-2.8-5.5h-2.3v5.5h-3.3V2z M333.2,4.8h-2.3v4.7h2.4c0.8,0,1.4-0.2,1.8-0.6c0.5-0.4,0.7-1,0.7-1.8s-0.2-1.4-0.7-1.8
		C334.6,5,334,4.8,333.2,4.8z"/>
	<path class="st1" d="M346.8,18.1c-1.8,0-3.3-0.3-4.7-0.9V14c1.3,0.7,2.6,1.1,4,1.1c0.5,0,1,0,1.4-0.1c1.3-0.2,1.9-0.7,1.9-1.4
		c0-0.5-0.2-0.9-0.7-1.3c-0.5-0.3-1.3-0.7-2.4-1.1c-1.5-0.6-2.6-1.2-3.3-1.9s-1.1-1.7-1.1-3c0-1.4,0.5-2.5,1.6-3.4
		c1.1-0.8,2.4-1.3,4.2-1.3c1.6,0,2.9,0.3,4.1,0.8v3.1c-1.1-0.6-2.4-1-3.9-1c-0.8,0-1.5,0.2-2,0.5c-0.5,0.3-0.7,0.7-0.7,1.2
		c0,0.5,0.2,0.9,0.7,1.2s1.2,0.7,2.3,1.2c1.5,0.6,2.7,1.3,3.4,2c0.7,0.7,1.1,1.7,1.1,2.9c0,1.4-0.5,2.6-1.6,3.4
		C350.1,17.7,348.6,18.1,346.8,18.1z"/>
</g>
<g class="st0">
	<path class="st1" d="M41.1,37.8l7.7-16.1h0.1l7.7,16.1h-3.5L51.8,35h-5.9l-1.2,2.8H41.1z M46.9,32.7h3.9c-0.9-2-1.5-3.5-1.9-4.7
		c0,0.1-0.3,0.7-0.8,2S47.2,32.1,46.9,32.7z"/>
	<path class="st1" d="M72.3,38.1h-0.1l-8.7-8.3l-1-0.9v9h-3.3V21.8h0.1l8.7,8.3l1,0.9v-9h3.3V38.1z"/>
	<path class="st1" d="M81.7,37.8h-5.1V22h5.1c2.7,0,4.8,0.7,6.4,2.2c1.6,1.5,2.4,3.4,2.4,5.7s-0.8,4.3-2.4,5.7
		C86.5,37.1,84.3,37.8,81.7,37.8z M81.6,24.8H80V35h1.7c1.7,0,3-0.5,3.9-1.4c1-1,1.5-2.2,1.5-3.7c0-1.5-0.5-2.7-1.5-3.6
		C84.6,25.3,83.3,24.8,81.6,24.8z"/>
	<path class="st1" d="M109,37.8H98.5V22h10.2v2.8h-6.8v3.6h5.8v2.7h-5.8V35h7.1V37.8z"/>
	<path class="st1" d="M125.5,38.1h-0.1l-8.7-8.3l-1-0.9v9h-3.3V21.8h0.1l8.7,8.3l1,0.9v-9h3.3V38.1z"/>
	<path class="st1" d="M142.7,36.9c-1.6,0.8-3.4,1.2-5.4,1.2c-2.5,0-4.5-0.8-6.1-2.4c-1.6-1.6-2.4-3.5-2.4-5.9c0-2.3,0.8-4.3,2.4-5.9
		c1.6-1.6,3.6-2.4,6-2.4c1.8,0,3.4,0.4,5,1.1v3.1c-1.6-0.7-3.2-1.1-4.8-1.1c-1.6,0-2.9,0.5-3.8,1.5c-1,1-1.4,2.2-1.4,3.7
		c0,1.5,0.5,2.7,1.4,3.7c0.9,1,2.2,1.5,3.7,1.5c0.8,0,1.5-0.1,2.2-0.3v-4.2h3.2V36.9z"/>
	<path class="st1" d="M149.7,37.8h-3.4V22h3.4V37.8z"/>
	<path class="st1" d="M167.2,38.1h-0.1l-8.7-8.3l-1-0.9v9H154V21.8h0.1l8.7,8.3l1,0.9v-9h3.3V38.1z"/>
	<path class="st1" d="M182,37.8h-10.5V22h10.2v2.8h-6.8v3.6h5.8v2.7h-5.8V35h7.1V37.8z"/>
	<path class="st1" d="M195.8,37.8h-10.5V22h10.2v2.8h-6.8v3.6h5.8v2.7h-5.8V35h7.1V37.8z"/>
	<path class="st1" d="M199.1,22h5.6c1.9,0,3.4,0.5,4.5,1.4c1.1,0.9,1.6,2.2,1.6,3.8c0,1.1-0.3,2-0.8,2.8c-0.6,0.8-1.3,1.3-2.2,1.7
		l3.3,6.1h-3.6l-2.8-5.5h-2.3v5.5h-3.3V22z M204.8,24.8h-2.3v4.7h2.4c0.8,0,1.4-0.2,1.8-0.6c0.5-0.4,0.7-1,0.7-1.8s-0.2-1.4-0.7-1.8
		C206.2,25,205.6,24.8,204.8,24.8z"/>
	<path class="st1" d="M218.3,38.1c-1.8,0-3.3-0.3-4.7-0.9V34c1.3,0.7,2.6,1.1,4,1.1c0.5,0,1,0,1.4-0.1c1.3-0.2,1.9-0.7,1.9-1.4
		c0-0.5-0.2-0.9-0.7-1.3c-0.5-0.3-1.3-0.7-2.4-1.1c-1.5-0.6-2.6-1.2-3.3-1.9c-0.7-0.7-1.1-1.7-1.1-3c0-1.4,0.5-2.5,1.6-3.4
		c1.1-0.8,2.4-1.3,4.2-1.3c1.6,0,2.9,0.3,4.1,0.8v3.1c-1.1-0.6-2.4-1-3.9-1c-0.8,0-1.5,0.2-2,0.5c-0.5,0.3-0.7,0.7-0.7,1.2
		c0,0.5,0.2,0.9,0.7,1.2s1.2,0.7,2.3,1.2c1.5,0.6,2.7,1.3,3.4,2c0.7,0.7,1.1,1.7,1.1,2.9c0,1.4-0.5,2.6-1.6,3.4
		C221.7,37.7,220.2,38.1,218.3,38.1z"/>
	<path class="st1" d="M234.3,39.3c-1.6-2.7-2.4-5.8-2.4-9.4s0.8-6.7,2.4-9.4h3.3c-1.7,2.8-2.5,5.9-2.5,9.4c0,3.5,0.8,6.6,2.5,9.4
		H234.3z"/>
	<path class="st1" d="M258.3,36.9c-1.6,0.8-3.4,1.2-5.4,1.2c-2.5,0-4.5-0.8-6.1-2.4c-1.6-1.6-2.4-3.5-2.4-5.9c0-2.3,0.8-4.3,2.4-5.9
		c1.6-1.6,3.6-2.4,6-2.4c1.8,0,3.4,0.4,5,1.1v3.1c-1.6-0.7-3.2-1.1-4.8-1.1s-2.9,0.5-3.8,1.5c-1,1-1.4,2.2-1.4,3.7
		c0,1.5,0.5,2.7,1.4,3.7c0.9,1,2.2,1.5,3.7,1.5c0.8,0,1.5-0.1,2.2-0.3v-4.2h3.2V36.9z"/>
	<path class="st1" d="M261.9,22h5.6c1.9,0,3.4,0.5,4.5,1.4c1.1,0.9,1.6,2.2,1.6,3.8c0,1.1-0.3,2-0.8,2.8c-0.6,0.8-1.3,1.3-2.2,1.7
		l3.3,6.1h-3.6l-2.8-5.5h-2.3v5.5h-3.3V22z M267.6,24.8h-2.3v4.7h2.4c0.8,0,1.4-0.2,1.8-0.6c0.5-0.4,0.7-1,0.7-1.8s-0.2-1.4-0.7-1.8
		C269,25,268.4,24.8,267.6,24.8z"/>
	<path class="st1" d="M281.2,38.1c-1.8,0-3.3-0.3-4.7-0.9V34c1.3,0.7,2.6,1.1,4,1.1c0.5,0,1,0,1.4-0.1c1.3-0.2,1.9-0.7,1.9-1.4
		c0-0.5-0.2-0.9-0.7-1.3c-0.5-0.3-1.3-0.7-2.4-1.1c-1.5-0.6-2.6-1.2-3.3-1.9c-0.7-0.7-1.1-1.7-1.1-3c0-1.4,0.5-2.5,1.6-3.4
		c1.1-0.8,2.4-1.3,4.2-1.3c1.6,0,2.9,0.3,4.1,0.8v3.1c-1.1-0.6-2.4-1-3.9-1c-0.8,0-1.5,0.2-2,0.5c-0.5,0.3-0.7,0.7-0.7,1.2
		c0,0.5,0.2,0.9,0.7,1.2s1.2,0.7,2.3,1.2c1.5,0.6,2.7,1.3,3.4,2c0.7,0.7,1.1,1.7,1.1,2.9c0,1.4-0.5,2.6-1.6,3.4
		C284.5,37.7,283,38.1,281.2,38.1z"/>
	<path class="st1" d="M300.8,37.8h-10.5V22h10.2v2.8h-6.8v3.6h5.8v2.7h-5.8V35h7.1V37.8z"/>
	<path class="st1" d="M306.1,20.5c1.6,2.7,2.4,5.8,2.4,9.4s-0.8,6.7-2.4,9.4h-3.3c1.7-2.8,2.5-5.9,2.5-9.4c0-3.5-0.8-6.6-2.5-9.4
		H306.1z"/>
</g>
</svg>
