<?xml version="1.0" encoding="utf-8"?>
<!-- Generator: Adobe Illustrator 22.1.0, SVG Export Plug-In . SVG Version: 6.00 Build 0)  -->
<svg version="1.1" id="Layer_1" xmlns="http://www.w3.org/2000/svg" xmlns:xlink="http://www.w3.org/1999/xlink" x="0px" y="0px"
	 viewBox="0 0 225 40" style="enable-background:new 0 0 225 40;" xml:space="preserve">
<style type="text/css">
	.st0{enable-background:new    ;}
	.st1{fill:#515151;}
</style>
<g class="st0">
	<path class="st1" d="M20.7,17.9h-3.4v-6.6h-6.5v6.6H7.4V2.1h3.4v6.4h6.5V2.1h3.4V17.9z"/>
	<path class="st1" d="M24,10c0-2.3,0.8-4.3,2.4-5.8c1.6-1.6,3.6-2.4,5.9-2.4c2.4,0,4.3,0.8,5.9,2.4c1.6,1.6,2.4,3.5,2.4,5.8
		c0,2.3-0.8,4.3-2.4,5.9c-1.6,1.6-3.6,2.4-5.9,2.4s-4.4-0.8-5.9-2.4C24.8,14.3,24,12.3,24,10z M27.4,10c0,1.4,0.5,2.7,1.4,3.6
		c0.9,1,2.1,1.5,3.5,1.5c1.4,0,2.6-0.5,3.5-1.5c0.9-1,1.4-2.2,1.4-3.6c0-1.4-0.5-2.6-1.4-3.6c-0.9-1-2.1-1.5-3.5-1.5
		c-1.4,0-2.6,0.5-3.5,1.5S27.4,8.6,27.4,10z"/>
	<path class="st1" d="M43.5,10c0-2.3,0.8-4.3,2.4-5.8c1.6-1.6,3.6-2.4,5.9-2.4c2.4,0,4.3,0.8,5.9,2.4c1.6,1.6,2.4,3.5,2.4,5.8
		c0,2.3-0.8,4.3-2.4,5.9c-1.6,1.6-3.6,2.4-5.9,2.4s-4.4-0.8-5.9-2.4C44.3,14.3,43.5,12.3,43.5,10z M46.9,10c0,1.4,0.5,2.7,1.4,3.6
		c0.9,1,2.1,1.5,3.5,1.5c1.4,0,2.6-0.5,3.5-1.5c0.9-1,1.4-2.2,1.4-3.6c0-1.4-0.5-2.6-1.4-3.6c-0.9-1-2.1-1.5-3.5-1.5
		c-1.4,0-2.6,0.5-3.5,1.5S46.9,8.6,46.9,10z"/>
	<path class="st1" d="M76.8,17c-1.6,0.8-3.4,1.2-5.4,1.2c-2.5,0-4.5-0.8-6.1-2.4c-1.6-1.6-2.4-3.5-2.4-5.9c0-2.3,0.8-4.3,2.4-5.9
		c1.6-1.6,3.6-2.4,6-2.4c1.8,0,3.4,0.4,5,1.1V6c-1.6-0.7-3.2-1.1-4.8-1.1c-1.6,0-2.9,0.5-3.8,1.5c-1,1-1.4,2.2-1.4,3.7
		c0,1.5,0.5,2.7,1.4,3.7c0.9,1,2.2,1.5,3.7,1.5c0.8,0,1.5-0.1,2.2-0.3v-4.2h3.2V17z"/>
	<path class="st1" d="M93.7,17.9h-3.4v-6.6h-6.5v6.6h-3.4V2.1h3.4v6.4h6.5V2.1h3.4V17.9z"/>
	<path class="st1" d="M107.5,17.9h-9.5V2.1h3.4v13h6.1V17.9z"/>
	<path class="st1" d="M107,2.1h3.8l3.6,6.5l3.6-6.5h3.8l-5.8,9.7v6.1h-3.4v-6.1L107,2.1z"/>
	<path class="st1" d="M140.7,2.9V6c-1.4-0.7-2.9-1.1-4.4-1.1c-1.6,0-2.8,0.5-3.8,1.5c-1,1-1.4,2.2-1.4,3.7s0.5,2.7,1.4,3.7
		c0.9,1,2.2,1.5,3.7,1.5c1.6,0,3.2-0.4,4.6-1.1v3.1c-1.3,0.7-2.9,1.1-4.8,1.1c-2.4,0-4.3-0.8-5.9-2.4c-1.6-1.6-2.4-3.5-2.4-5.9
		s0.8-4.3,2.4-5.9c1.6-1.6,3.6-2.4,6-2.4C137.8,1.8,139.4,2.1,140.7,2.9z"/>
	<path class="st1" d="M143.1,10c0-2.3,0.8-4.3,2.4-5.8c1.6-1.6,3.6-2.4,5.9-2.4c2.4,0,4.3,0.8,5.9,2.4c1.6,1.6,2.4,3.5,2.4,5.8
		c0,2.3-0.8,4.3-2.4,5.9c-1.6,1.6-3.6,2.4-5.9,2.4c-2.4,0-4.4-0.8-5.9-2.4C143.9,14.3,143.1,12.3,143.1,10z M146.5,10
		c0,1.4,0.5,2.7,1.4,3.6c0.9,1,2.1,1.5,3.5,1.5c1.4,0,2.6-0.5,3.5-1.5c0.9-1,1.4-2.2,1.4-3.6c0-1.4-0.5-2.6-1.4-3.6
		c-0.9-1-2.1-1.5-3.5-1.5c-1.4,0-2.6,0.5-3.5,1.5S146.5,8.6,146.5,10z"/>
	<path class="st1" d="M175.6,2.9V6c-1.4-0.7-2.9-1.1-4.4-1.1c-1.6,0-2.8,0.5-3.8,1.5c-1,1-1.4,2.2-1.4,3.7s0.5,2.7,1.4,3.7
		c0.9,1,2.2,1.5,3.7,1.5c1.6,0,3.2-0.4,4.6-1.1v3.1c-1.3,0.7-2.9,1.1-4.8,1.1c-2.4,0-4.3-0.8-5.9-2.4c-1.6-1.6-2.4-3.5-2.4-5.9
		s0.8-4.3,2.4-5.9c1.6-1.6,3.6-2.4,6-2.4C172.7,1.8,174.2,2.1,175.6,2.9z"/>
	<path class="st1" d="M192.2,17.9h-3.4v-6.6h-6.5v6.6h-3.4V2.1h3.4v6.4h6.5V2.1h3.4V17.9z"/>
	<path class="st1" d="M199.9,17.9h-3.4V2.1h3.4V17.9z"/>
	<path class="st1" d="M217.4,18.2h-0.1l-8.7-8.3l-1-0.9v9h-3.3V1.8h0.1l8.7,8.3l1,0.9v-9h3.3V18.2z"/>
</g>
<g class="st0">
	<path class="st1" d="M10.2,38.2c-1.8,0-3.3-0.3-4.7-0.9v-3.3c1.3,0.7,2.6,1.1,4,1.1c0.5,0,1,0,1.4-0.1c1.3-0.2,1.9-0.7,1.9-1.4
		c0-0.5-0.2-0.9-0.7-1.3c-0.5-0.3-1.3-0.7-2.4-1.1c-1.5-0.6-2.6-1.2-3.3-1.9s-1.1-1.7-1.1-3c0-1.4,0.5-2.5,1.6-3.4s2.4-1.3,4.2-1.3
		c1.6,0,2.9,0.3,4.1,0.8v3.1c-1.1-0.6-2.4-1-3.9-1c-0.8,0-1.5,0.2-2,0.5s-0.7,0.7-0.7,1.2c0,0.5,0.2,0.9,0.7,1.2s1.2,0.7,2.3,1.2
		c1.5,0.6,2.7,1.3,3.4,2c0.7,0.7,1.1,1.7,1.1,2.9c0,1.4-0.5,2.6-1.6,3.4C13.5,37.8,12.1,38.2,10.2,38.2z"/>
	<path class="st1" d="M32.6,37.9h-3.4v-6.6h-6.5v6.6h-3.4V22.1h3.4v6.4h6.5v-6.4h3.4V37.9z"/>
	<path class="st1" d="M40.3,37.9h-3.4V22.1h3.4V37.9z"/>
	<path class="st1" d="M49.8,32.5H48v5.4h-3.4V22.1h5.1c1.9,0,3.3,0.5,4.4,1.4c1.1,0.9,1.6,2.2,1.6,3.9s-0.5,3-1.6,3.9
		C53.1,32.1,51.6,32.5,49.8,32.5z M49.8,24.9H48v4.7h1.9c0.8,0,1.4-0.2,1.8-0.6c0.4-0.4,0.7-1,0.7-1.7c0-0.8-0.2-1.4-0.7-1.8
		C51.2,25.1,50.6,24.9,49.8,24.9z"/>
	<path class="st1" d="M56.6,22.1h3.8l3.6,6.5l3.6-6.5h3.8l-5.8,9.7v6.1h-3.4v-6.1L56.6,22.1z"/>
	<path class="st1" d="M69.7,37.9l7.7-16.1h0.1l7.7,16.1h-3.5l-1.3-2.8h-5.9l-1.2,2.8H69.7z M75.5,32.8h3.9c-0.9-2-1.5-3.5-1.9-4.7
		c0,0.1-0.3,0.7-0.8,2S75.8,32.2,75.5,32.8z"/>
	<path class="st1" d="M87.7,22.1h5.6c1.9,0,3.4,0.5,4.5,1.4s1.6,2.2,1.6,3.8c0,1.1-0.3,2-0.8,2.8c-0.6,0.8-1.3,1.3-2.2,1.7l3.3,6.1
		h-3.6l-2.8-5.5H91v5.5h-3.3V22.1z M93.4,24.9H91v4.7h2.4c0.8,0,1.4-0.2,1.8-0.6c0.5-0.4,0.7-1,0.7-1.8s-0.2-1.4-0.7-1.8
		C94.8,25.1,94.2,24.9,93.4,24.9z"/>
	<path class="st1" d="M108.1,37.9H103V22.1h5.1c2.7,0,4.8,0.7,6.4,2.2s2.4,3.4,2.4,5.7s-0.8,4.3-2.4,5.7
		C112.9,37.2,110.7,37.9,108.1,37.9z M108,24.9h-1.6v10.2h1.7c1.7,0,3-0.5,3.9-1.4c1-1,1.5-2.2,1.5-3.7c0-1.5-0.5-2.7-1.5-3.6
		C111,25.4,109.7,24.9,108,24.9z"/>
	<path class="st1" d="M134.4,37.9h-9.5V22.1h3.4v13h6.1V37.9z"/>
	<path class="st1" d="M140.8,37.9h-3.4V22.1h3.4V37.9z"/>
	<path class="st1" d="M152.7,33.5c-0.4-0.4-0.7-0.8-1.1-1.2c-0.4-0.4-0.8-0.9-1.3-1.4s-0.8-0.9-1.1-1.2l-0.8-0.7v8.9h-3.2V21.8h0.1
		l7.5,7.6l7.5-7.6h0.1v16.1h-3.2V29l-0.8,0.7C155.1,31,153.9,32.3,152.7,33.5z"/>
	<path class="st1" d="M168,37.9h-3.4V22.1h3.4V37.9z"/>
	<path class="st1" d="M183.1,24.9h-4.4v13h-3.4v-13h-4.4v-2.8h12.3V24.9z"/>
	<path class="st1" d="M196.4,37.9h-10.5V22.1h10.2v2.8h-6.8v3.6h5.8v2.7h-5.8v3.8h7.1V37.9z"/>
	<path class="st1" d="M204.8,37.9h-5.1V22.1h5.1c2.7,0,4.8,0.7,6.4,2.2c1.6,1.5,2.4,3.4,2.4,5.7s-0.8,4.3-2.4,5.7
		C209.6,37.2,207.5,37.9,204.8,37.9z M204.7,24.9h-1.6v10.2h1.7c1.7,0,3-0.5,3.9-1.4c1-1,1.5-2.2,1.5-3.7c0-1.5-0.5-2.7-1.5-3.6
		C207.7,25.4,206.4,24.9,204.7,24.9z"/>
	<path class="st1" d="M216.1,36.5c0-0.5,0.2-1,0.5-1.3c0.3-0.3,0.8-0.5,1.3-0.5s1,0.2,1.3,0.5c0.3,0.3,0.5,0.8,0.5,1.3
		c0,0.5-0.2,1-0.5,1.3c-0.3,0.3-0.8,0.5-1.3,0.5c-0.6,0-1-0.2-1.3-0.5S216.1,37,216.1,36.5z"/>
</g>
</svg>
