<?xml version="1.0" encoding="utf-8"?>
<!-- Generator: Adobe Illustrator 22.1.0, SVG Export Plug-In . SVG Version: 6.00 Build 0)  -->
<svg version="1.1" id="Layer_1" xmlns="http://www.w3.org/2000/svg" xmlns:xlink="http://www.w3.org/1999/xlink" x="0px" y="0px"
	 viewBox="0 0 90 40" style="enable-background:new 0 0 90 40;" xml:space="preserve">
<style type="text/css">
	.st0{enable-background:new    ;}
	.st1{fill:#515151;}
</style>
<g class="st0">
	<path class="st1" d="M2.8,2.4h5.6c1.9,0,3.4,0.5,4.5,1.4s1.6,2.2,1.6,3.8c0,1.1-0.3,2-0.8,2.8c-0.6,0.8-1.3,1.3-2.2,1.7l3.3,6.1
		h-3.6l-2.8-5.5H6.1v5.5H2.8V2.4z M8.5,5.2H6.1V10h2.4c0.8,0,1.4-0.2,1.8-0.6c0.5-0.4,0.7-1,0.7-1.8s-0.2-1.4-0.7-1.8
		C9.9,5.5,9.3,5.2,8.5,5.2z"/>
	<path class="st1" d="M15.9,2.4h3.8l3.6,6.5l3.6-6.5h3.8L25,12.1v6.1h-3.4v-6.1L15.9,2.4z"/>
	<path class="st1" d="M42.5,5.2h-6.3V9h5.3v2.8h-5.3v6.4h-3.4V2.4h9.7V5.2z"/>
	<path class="st1" d="M49,18.3h-3.4V2.4H49V18.3z"/>
	<path class="st1" d="M66.5,18.5h-0.1l-8.7-8.3l-1-0.9v9h-3.3V2.2h0.1l8.7,8.3l1,0.9v-9h3.3V18.5z"/>
	<path class="st1" d="M81.3,18.3H70.8V2.4H81v2.8h-6.8v3.6H80v2.7h-5.8v3.8h7.1V18.3z"/>
	<path class="st1" d="M87.2,17l-1.8,4.6h-2.4l1.3-4.6H87.2z"/>
</g>
<g class="st0">
	<path class="st1" d="M20.7,23.2v3.1c-1.4-0.7-2.9-1.1-4.4-1.1c-1.6,0-2.8,0.5-3.8,1.5c-1,1-1.4,2.2-1.4,3.7s0.5,2.7,1.4,3.7
		c0.9,1,2.2,1.5,3.7,1.5c1.6,0,3.2-0.4,4.6-1.1v3.1c-1.3,0.7-2.9,1.1-4.8,1.1c-2.4,0-4.3-0.8-5.9-2.4c-1.6-1.6-2.4-3.5-2.4-5.9
		s0.8-4.3,2.4-5.9c1.6-1.6,3.6-2.4,6-2.4C17.8,22.1,19.4,22.5,20.7,23.2z"/>
	<path class="st1" d="M37.4,38.3H34v-6.6h-6.5v6.6h-3.4V22.4h3.4v6.4H34v-6.4h3.4V38.3z"/>
	<path class="st1" d="M45.1,38.3h-3.4V22.4h3.4V38.3z"/>
	<path class="st1" d="M62.6,38.5h-0.1l-8.7-8.3l-1-0.9v9h-3.3V22.2h0.1l8.7,8.3l1,0.9v-9h3.3V38.5z"/>
	<path class="st1" d="M65.1,38.3l7.7-16.1h0.1l7.7,16.1H77l-1.3-2.8h-5.9l-1.2,2.8H65.1z M70.9,33.1h3.9c-0.9-2-1.5-3.5-1.9-4.7
		c0,0.1-0.3,0.7-0.8,2S71.1,32.5,70.9,33.1z"/>
</g>
</svg>
