<?xml version="1.0" encoding="utf-8"?>
<!-- Generator: Adobe Illustrator 22.1.0, SVG Export Plug-In . SVG Version: 6.00 Build 0)  -->
<svg version="1.1" id="Layer_1" xmlns="http://www.w3.org/2000/svg" xmlns:xlink="http://www.w3.org/1999/xlink" x="0px" y="0px"
	 viewBox="0 0 120 40" style="enable-background:new 0 0 120 40;" xml:space="preserve">
<style type="text/css">
	.st0{enable-background:new    ;}
	.st1{fill:#515151;}
</style>
<g class="st0">
	<path class="st1" d="M8.8,28.2c-1.8,0-3.3-0.3-4.7-0.9v-3.3c1.3,0.7,2.6,1.1,4,1.1c0.5,0,1,0,1.4-0.1c1.3-0.2,1.9-0.7,1.9-1.4
		c0-0.5-0.2-0.9-0.7-1.3c-0.5-0.3-1.3-0.7-2.4-1.1c-1.5-0.6-2.6-1.2-3.3-1.9s-1.1-1.7-1.1-3c0-1.4,0.5-2.5,1.6-3.4s2.4-1.3,4.2-1.3
		c1.6,0,2.9,0.3,4.1,0.8v3.1c-1.1-0.6-2.4-1-3.9-1c-0.8,0-1.5,0.2-2,0.5s-0.7,0.7-0.7,1.2c0,0.5,0.2,0.9,0.7,1.2s1.2,0.7,2.3,1.2
		c1.5,0.6,2.7,1.3,3.4,2c0.7,0.7,1.1,1.7,1.1,2.9c0,1.4-0.5,2.6-1.6,3.4C12.1,27.8,10.7,28.2,8.8,28.2z"/>
	<path class="st1" d="M16.1,27.9l7.7-16.1h0.1l7.7,16.1H28l-1.3-2.8h-5.9l-1.2,2.8H16.1z M21.9,22.8h3.9c-0.9-2-1.5-3.5-1.9-4.7
		c0,0.1-0.3,0.7-0.8,2C22.5,21.3,22.1,22.2,21.9,22.8z"/>
	<path class="st1" d="M41.7,23.5c-0.4-0.4-0.7-0.8-1.1-1.2c-0.4-0.4-0.8-0.9-1.3-1.4c-0.5-0.5-0.8-0.9-1.1-1.2L37.3,19v8.9h-3.2
		V11.8h0.1l7.5,7.6l7.5-7.6h0.1v16.1h-3.2V19l-0.8,0.7C44.1,21,42.9,22.3,41.7,23.5z"/>
	<path class="st1" d="M57.6,28.2c-1.8,0-3.3-0.3-4.7-0.9v-3.3c1.3,0.7,2.6,1.1,4,1.1c0.5,0,1,0,1.4-0.1c1.3-0.2,1.9-0.7,1.9-1.4
		c0-0.5-0.2-0.9-0.7-1.3c-0.5-0.3-1.3-0.7-2.4-1.1c-1.5-0.6-2.6-1.2-3.3-1.9s-1.1-1.7-1.1-3c0-1.4,0.5-2.5,1.6-3.4s2.4-1.3,4.2-1.3
		c1.6,0,2.9,0.3,4.1,0.8v3.1c-1.1-0.6-2.4-1-3.9-1c-0.8,0-1.5,0.2-2,0.5S56,15.9,56,16.4c0,0.5,0.2,0.9,0.7,1.2s1.2,0.7,2.3,1.2
		c1.5,0.6,2.7,1.3,3.4,2c0.7,0.7,1.1,1.7,1.1,2.9c0,1.4-0.5,2.6-1.6,3.4C60.9,27.8,59.4,28.2,57.6,28.2z"/>
	<path class="st1" d="M80,27.9h-3.4v-6.6h-6.5v6.6h-3.4V12.1h3.4v6.4h6.5v-6.4H80V27.9z"/>
	<path class="st1" d="M87.7,27.9h-3.4V12.1h3.4V27.9z"/>
	<path class="st1" d="M97.1,22.5h-1.8v5.4H92V12.1h5.1c1.9,0,3.3,0.5,4.4,1.4c1.1,0.9,1.6,2.2,1.6,3.9s-0.5,3-1.6,3.9
		C100.5,22.1,99,22.5,97.1,22.5z M97.2,14.9h-1.8v4.7h1.9c0.8,0,1.4-0.2,1.8-0.6c0.4-0.4,0.7-1,0.7-1.7c0-0.8-0.2-1.4-0.7-1.8
		C98.6,15.1,98,14.9,97.2,14.9z"/>
	<path class="st1" d="M110.2,28.2c-1.8,0-3.3-0.3-4.7-0.9v-3.3c1.3,0.7,2.6,1.1,4,1.1c0.5,0,1,0,1.4-0.1c1.3-0.2,1.9-0.7,1.9-1.4
		c0-0.5-0.2-0.9-0.7-1.3c-0.5-0.3-1.3-0.7-2.4-1.1c-1.5-0.6-2.6-1.2-3.3-1.9c-0.7-0.7-1.1-1.7-1.1-3c0-1.4,0.5-2.5,1.6-3.4
		c1.1-0.8,2.4-1.3,4.2-1.3c1.6,0,2.9,0.3,4.1,0.8v3.1c-1.1-0.6-2.4-1-3.9-1c-0.8,0-1.5,0.2-2,0.5c-0.5,0.3-0.7,0.7-0.7,1.2
		c0,0.5,0.2,0.9,0.7,1.2s1.2,0.7,2.3,1.2c1.5,0.6,2.7,1.3,3.4,2c0.7,0.7,1.1,1.7,1.1,2.9c0,1.4-0.5,2.6-1.6,3.4
		C113.5,27.8,112.1,28.2,110.2,28.2z"/>
</g>
</svg>
