<?xml version="1.0" encoding="utf-8"?>
<!-- Generator: Adobe Illustrator 22.1.0, SVG Export Plug-In . SVG Version: 6.00 Build 0)  -->
<svg version="1.1" id="Layer_1" xmlns="http://www.w3.org/2000/svg" xmlns:xlink="http://www.w3.org/1999/xlink" x="0px" y="0px"
	 viewBox="0 0 120 40" style="enable-background:new 0 0 120 40;" xml:space="preserve">
<style type="text/css">
	.st0{enable-background:new    ;}
	.st1{fill:#515151;}
</style>
<g class="st0">
	<path class="st1" d="M13.1,18.2c-1.8,0-3.3-0.3-4.7-0.9v-3.3c1.3,0.7,2.6,1.1,4,1.1c0.5,0,1,0,1.4-0.1c1.3-0.2,1.9-0.7,1.9-1.4
		c0-0.5-0.2-0.9-0.7-1.3c-0.5-0.3-1.3-0.7-2.4-1.1c-1.5-0.6-2.6-1.2-3.3-1.9s-1.1-1.7-1.1-3C8.1,5,8.7,3.9,9.7,3s2.4-1.3,4.2-1.3
		c1.6,0,2.9,0.3,4.1,0.8v3.1c-1.1-0.6-2.4-1-3.9-1c-0.8,0-1.5,0.2-2,0.5s-0.7,0.7-0.7,1.2c0,0.5,0.2,0.9,0.7,1.2s1.2,0.7,2.3,1.2
		c1.5,0.6,2.7,1.3,3.4,2c0.7,0.7,1.1,1.7,1.1,2.9c0,1.4-0.5,2.6-1.6,3.4C16.4,17.8,14.9,18.2,13.1,18.2z"/>
	<path class="st1" d="M19.9,2.1h3.8l3.6,6.5L31,2.1h3.8l-5.8,9.7v6.1h-3.4v-6.1L19.9,2.1z"/>
	<path class="st1" d="M50.1,18.2h-0.1l-8.7-8.3l-1-0.9v9h-3.3V1.8H37l8.7,8.3l1,0.9v-9h3.3V18.2z"/>
	<path class="st1" d="M64.9,17.9H54.4V2.1h10.2v2.8h-6.8v3.6h5.8v2.7h-5.8v3.8h7.1V17.9z"/>
	<path class="st1" d="M68.2,2.1h5.6c1.9,0,3.4,0.5,4.5,1.4c1.1,0.9,1.6,2.2,1.6,3.8c0,1.1-0.3,2-0.8,2.8c-0.5,0.8-1.3,1.3-2.2,1.7
		l3.3,6.1h-3.6l-2.8-5.5h-2.3v5.5h-3.3V2.1z M73.8,4.9h-2.3v4.7h2.4c0.8,0,1.4-0.2,1.8-0.6c0.5-0.4,0.7-1,0.7-1.8s-0.2-1.4-0.7-1.8
		C75.3,5.1,74.6,4.9,73.8,4.9z"/>
	<path class="st1" d="M96.3,17c-1.6,0.8-3.4,1.2-5.4,1.2c-2.5,0-4.5-0.8-6.1-2.4c-1.6-1.6-2.4-3.5-2.4-5.9c0-2.3,0.8-4.3,2.4-5.9
		c1.6-1.6,3.6-2.4,6-2.4c1.8,0,3.4,0.4,5,1.1V6c-1.6-0.7-3.2-1.1-4.8-1.1c-1.6,0-2.9,0.5-3.8,1.5c-1,1-1.4,2.2-1.4,3.7
		c0,1.5,0.5,2.7,1.4,3.7c0.9,1,2.2,1.5,3.7,1.5c0.8,0,1.5-0.1,2.2-0.3v-4.2h3.2V17z"/>
	<path class="st1" d="M97.7,2.1h3.8l3.6,6.5l3.6-6.5h3.8l-5.8,9.7v6.1h-3.4v-6.1L97.7,2.1z"/>
</g>
<g class="st0">
	<path class="st1" d="M12,38.2c-1.8,0-3.3-0.3-4.7-0.9v-3.3c1.3,0.7,2.6,1.1,4,1.1c0.5,0,1,0,1.4-0.1c1.3-0.2,1.9-0.7,1.9-1.4
		c0-0.5-0.2-0.9-0.7-1.3c-0.5-0.3-1.3-0.7-2.4-1.1c-1.5-0.6-2.6-1.2-3.3-1.9S7,27.7,7,26.4C7,25,7.6,23.9,8.6,23s2.4-1.3,4.2-1.3
		c1.6,0,2.9,0.3,4.1,0.8v3.1c-1.1-0.6-2.4-1-3.9-1c-0.8,0-1.5,0.2-2,0.5s-0.7,0.7-0.7,1.2c0,0.5,0.2,0.9,0.7,1.2s1.2,0.7,2.3,1.2
		c1.5,0.6,2.7,1.3,3.4,2c0.7,0.7,1.1,1.7,1.1,2.9c0,1.4-0.5,2.6-1.6,3.4C15.3,37.8,13.8,38.2,12,38.2z"/>
	<path class="st1" d="M34.4,37.9H31v-6.6h-6.5v6.6h-3.4V22.1h3.4v6.4H31v-6.4h3.4V37.9z"/>
	<path class="st1" d="M42.1,37.9h-3.4V22.1h3.4V37.9z"/>
	<path class="st1" d="M51.5,32.5h-1.8v5.4h-3.4V22.1h5.1c1.9,0,3.3,0.5,4.4,1.4c1.1,0.9,1.6,2.2,1.6,3.9s-0.5,3-1.6,3.9
		C54.9,32.1,53.4,32.5,51.5,32.5z M51.6,24.9h-1.8v4.7h1.9c0.8,0,1.4-0.2,1.8-0.6c0.4-0.4,0.7-1,0.7-1.7c0-0.8-0.2-1.4-0.7-1.8
		C53,25.1,52.4,24.9,51.6,24.9z"/>
	<path class="st1" d="M65.8,32.5H64v5.4h-3.4V22.1h5.1c1.9,0,3.3,0.5,4.4,1.4c1.1,0.9,1.6,2.2,1.6,3.9s-0.5,3-1.6,3.9
		C69.1,32.1,67.6,32.5,65.8,32.5z M65.9,24.9H64v4.7H66c0.8,0,1.4-0.2,1.8-0.6c0.4-0.4,0.7-1,0.7-1.7c0-0.8-0.2-1.4-0.7-1.8
		C67.3,25.1,66.7,24.9,65.9,24.9z"/>
	<path class="st1" d="M78.3,37.9h-3.4V22.1h3.4V37.9z"/>
	<path class="st1" d="M95.7,38.2h-0.1l-8.7-8.3l-1-0.9v9h-3.3V21.8h0.1l8.7,8.3l1,0.9v-9h3.3V38.2z"/>
	<path class="st1" d="M113,37c-1.6,0.8-3.4,1.2-5.4,1.2c-2.5,0-4.5-0.8-6.1-2.4C99.8,34.3,99,32.3,99,30c0-2.3,0.8-4.3,2.4-5.9
		c1.6-1.6,3.6-2.4,6-2.4c1.8,0,3.4,0.4,5,1.1V26c-1.6-0.7-3.2-1.1-4.8-1.1s-2.9,0.5-3.8,1.5c-1,1-1.4,2.2-1.4,3.7
		c0,1.5,0.5,2.7,1.4,3.7c0.9,1,2.2,1.5,3.7,1.5c0.8,0,1.5-0.1,2.2-0.3v-4.2h3.2V37z"/>
</g>
</svg>
