<?xml version="1.0" encoding="utf-8"?>
<!-- Generator: Adobe Illustrator 22.1.0, SVG Export Plug-In . SVG Version: 6.00 Build 0)  -->
<svg version="1.1" id="Layer_1" xmlns="http://www.w3.org/2000/svg" xmlns:xlink="http://www.w3.org/1999/xlink" x="0px" y="0px"
	 viewBox="0 0 325 40" style="enable-background:new 0 0 325 40;" xml:space="preserve">
<style type="text/css">
	.st0{enable-background:new    ;}
	.st1{fill:#515151;}
</style>
<g class="st0">
	<path class="st1" d="M109.4,5.2H105v13h-3.4v-13h-4.4V2.4h12.3V5.2z"/>
	<path class="st1" d="M109.3,18.3L117,2.2h0.1l7.7,16.1h-3.5l-1.3-2.8h-5.9l-1.2,2.8H109.3z M115.1,13.1h3.9c-0.9-2-1.5-3.5-1.9-4.7
		c0,0.1-0.3,0.7-0.8,2S115.4,12.5,115.1,13.1z"/>
	<path class="st1" d="M134.9,13.9c-0.4-0.4-0.7-0.8-1.1-1.2c-0.4-0.4-0.8-0.9-1.3-1.4s-0.8-0.9-1.1-1.2l-0.8-0.7v8.9h-3.2V2.2h0.1
		l7.5,7.6l7.5-7.6h0.1v16.1h-3.2V9.3l-0.8,0.7C137.3,11.3,136.1,12.6,134.9,13.9z"/>
	<path class="st1" d="M145,18.3l7.7-16.1h0.1l7.7,16.1H157l-1.3-2.8h-5.9l-1.2,2.8H145z M150.8,13.1h3.9c-0.9-2-1.5-3.5-1.9-4.7
		c0,0.1-0.3,0.7-0.8,2S151.1,12.5,150.8,13.1z"/>
	<path class="st1" d="M163,2.4h5.6c1.9,0,3.4,0.5,4.5,1.4c1.1,0.9,1.7,2.2,1.7,3.8c0,1.1-0.3,2-0.8,2.8c-0.6,0.8-1.3,1.3-2.2,1.7
		l3.3,6.1h-3.6l-2.8-5.5h-2.3v5.5H163V2.4z M168.6,5.2h-2.3V10h2.4c0.8,0,1.4-0.2,1.8-0.6c0.5-0.4,0.7-1,0.7-1.8s-0.2-1.4-0.7-1.8
		C170.1,5.5,169.4,5.2,168.6,5.2z"/>
	<path class="st1" d="M187,18.6c-1.8,0-3.3-0.3-4.7-0.9v-3.3c1.3,0.7,2.6,1.1,4,1.1c0.5,0,1,0,1.4-0.1c1.3-0.2,1.9-0.7,1.9-1.4
		c0-0.5-0.2-0.9-0.7-1.3c-0.5-0.3-1.3-0.7-2.4-1.1c-1.5-0.6-2.6-1.2-3.3-1.9c-0.7-0.7-1.1-1.7-1.1-3c0-1.4,0.5-2.5,1.6-3.4
		s2.4-1.3,4.2-1.3c1.6,0,2.9,0.3,4.1,0.8V6c-1.1-0.6-2.4-1-3.9-1c-0.8,0-1.5,0.2-2,0.5s-0.7,0.7-0.7,1.2c0,0.5,0.2,0.9,0.7,1.2
		c0.5,0.4,1.2,0.7,2.3,1.2c1.5,0.6,2.7,1.3,3.4,2c0.7,0.7,1.1,1.7,1.1,2.9c0,1.4-0.5,2.6-1.6,3.4C190.3,18.2,188.8,18.6,187,18.6z"
		/>
	<path class="st1" d="M209.4,18.3H206v-6.6h-6.5v6.6h-3.4V2.4h3.4v6.4h6.5V2.4h3.4V18.3z"/>
	<path class="st1" d="M217.1,18.3h-3.4V2.4h3.4V18.3z"/>
	<path class="st1" d="M226.5,12.8h-1.8v5.4h-3.4V2.4h5.1c1.9,0,3.3,0.5,4.4,1.4c1.1,0.9,1.7,2.2,1.7,3.9s-0.5,3-1.7,3.9
		C229.9,12.4,228.4,12.8,226.5,12.8z M226.6,5.2h-1.8V10h1.9c0.8,0,1.4-0.2,1.8-0.6s0.7-1,0.7-1.7c0-0.8-0.2-1.4-0.7-1.8
		C228,5.5,227.4,5.2,226.6,5.2z"/>
</g>
<g class="st0">
	<path class="st1" d="M16.9,33.9c-0.4-0.4-0.7-0.8-1.1-1.2c-0.4-0.4-0.8-0.9-1.3-1.4s-0.8-0.9-1.1-1.2l-0.8-0.7v8.9H9.3V22.2h0.1
		l7.5,7.6l7.5-7.6h0.1v16.1h-3.2v-8.9l-0.8,0.7C19.3,31.3,18.1,32.6,16.9,33.9z"/>
	<path class="st1" d="M27,38.3l7.7-16.1h0.1l7.7,16.1H39l-1.3-2.8h-5.9l-1.2,2.8H27z M32.8,33.1h3.9c-0.9-2-1.5-3.5-1.9-4.7
		c0,0.1-0.3,0.7-0.8,2S33.1,32.5,32.8,33.1z"/>
	<path class="st1" d="M58.1,38.5H58l-8.7-8.3l-1-0.9v9H45V22.2h0.1l8.7,8.3l1,0.9v-9h3.3V38.5z"/>
	<path class="st1" d="M60.6,38.3l7.7-16.1h0.1l7.7,16.1h-3.5l-1.3-2.8h-5.9l-1.2,2.8H60.6z M66.4,33.1h3.9c-0.9-2-1.5-3.5-1.9-4.7
		c0,0.1-0.3,0.7-0.8,2S66.7,32.5,66.4,33.1z"/>
	<path class="st1" d="M90.8,37.3c-1.6,0.8-3.4,1.2-5.4,1.2c-2.5,0-4.5-0.8-6.1-2.4c-1.6-1.6-2.4-3.5-2.4-5.9c0-2.3,0.8-4.3,2.4-5.9
		c1.6-1.6,3.6-2.4,6-2.4c1.8,0,3.4,0.4,5,1.1v3.1c-1.6-0.7-3.2-1.1-4.8-1.1c-1.6,0-2.9,0.5-3.8,1.5c-1,1-1.4,2.2-1.4,3.7
		c0,1.5,0.5,2.7,1.4,3.7c0.9,1,2.2,1.5,3.7,1.5c0.8,0,1.5-0.1,2.2-0.3v-4.2h3.2V37.3z"/>
	<path class="st1" d="M105,38.3H94.4V22.4h10.2v2.8h-6.8v3.6h5.8v2.7h-5.8v3.8h7.1V38.3z"/>
	<path class="st1" d="M115.9,33.9c-0.4-0.4-0.7-0.8-1.1-1.2c-0.4-0.4-0.8-0.9-1.3-1.4s-0.8-0.9-1.1-1.2l-0.8-0.7v8.9h-3.2V22.2h0.1
		l7.5,7.6l7.5-7.6h0.1v16.1h-3.2v-8.9l-0.8,0.7C118.3,31.3,117.1,32.6,115.9,33.9z"/>
	<path class="st1" d="M138.3,38.3h-10.5V22.4H138v2.8h-6.8v3.6h5.8v2.7h-5.8v3.8h7.1V38.3z"/>
	<path class="st1" d="M154.8,38.5h-0.1l-8.7-8.3l-1-0.9v9h-3.3V22.2h0.1l8.7,8.3l1,0.9v-9h3.3V38.5z"/>
	<path class="st1" d="M169.8,25.2h-4.4v13H162v-13h-4.4v-2.8h12.3V25.2z"/>
	<path class="st1" d="M175.6,38.3l7.7-16.1h0.1l7.7,16.1h-3.5l-1.3-2.8h-5.9l-1.2,2.8H175.6z M181.4,33.1h3.9
		c-0.9-2-1.5-3.5-1.9-4.7c0,0.1-0.3,0.7-0.8,2S181.7,32.5,181.4,33.1z"/>
	<path class="st1" d="M206.7,38.5h-0.1l-8.7-8.3l-1-0.9v9h-3.3V22.2h0.1l8.7,8.3l1,0.9v-9h3.3V38.5z"/>
	<path class="st1" d="M216.2,38.3h-5.1V22.4h5.1c2.7,0,4.8,0.7,6.4,2.2s2.4,3.4,2.4,5.7s-0.8,4.3-2.4,5.7
		C220.9,37.5,218.8,38.3,216.2,38.3z M216.1,25.2h-1.6v10.2h1.7c1.7,0,3-0.5,3.9-1.4c1-1,1.5-2.2,1.5-3.7c0-1.5-0.5-2.7-1.5-3.6
		C219.1,25.7,217.7,25.2,216.1,25.2z"/>
	<path class="st1" d="M245.9,37.3c-1.6,0.8-3.4,1.2-5.4,1.2c-2.5,0-4.5-0.8-6.1-2.4s-2.4-3.5-2.4-5.9c0-2.3,0.8-4.3,2.4-5.9
		c1.6-1.6,3.6-2.4,6-2.4c1.8,0,3.4,0.4,5,1.1v3.1c-1.6-0.7-3.2-1.1-4.8-1.1c-1.6,0-2.9,0.5-3.8,1.5c-1,1-1.4,2.2-1.4,3.7
		c0,1.5,0.5,2.7,1.4,3.7s2.2,1.5,3.7,1.5c0.8,0,1.5-0.1,2.2-0.3v-4.2h3.2V37.3z"/>
	<path class="st1" d="M249.5,22.4h5.6c1.9,0,3.4,0.5,4.5,1.4c1.1,0.9,1.7,2.2,1.7,3.8c0,1.1-0.3,2-0.8,2.8c-0.5,0.8-1.3,1.3-2.2,1.7
		l3.3,6.1h-3.6l-2.8-5.5h-2.3v5.5h-3.3V22.4z M255.2,25.2h-2.3V30h2.4c0.8,0,1.4-0.2,1.8-0.6c0.5-0.4,0.7-1,0.7-1.8
		s-0.2-1.4-0.7-1.8C256.6,25.5,256,25.2,255.2,25.2z"/>
	<path class="st1" d="M263.7,30.3c0-2.3,0.8-4.3,2.4-5.8c1.6-1.6,3.6-2.4,5.9-2.4c2.4,0,4.3,0.8,5.9,2.4c1.6,1.6,2.4,3.5,2.4,5.8
		c0,2.3-0.8,4.3-2.4,5.9c-1.6,1.6-3.6,2.4-5.9,2.4s-4.4-0.8-5.9-2.4C264.5,34.6,263.7,32.7,263.7,30.3z M267.2,30.3
		c0,1.4,0.5,2.7,1.4,3.6c0.9,1,2.1,1.5,3.5,1.5c1.4,0,2.6-0.5,3.5-1.5c0.9-1,1.4-2.2,1.4-3.6c0-1.4-0.5-2.6-1.4-3.6
		c-0.9-1-2.1-1.5-3.5-1.5c-1.4,0-2.6,0.5-3.5,1.5S267.2,28.9,267.2,30.3z"/>
	<path class="st1" d="M296.7,22.4v10.1c0,1.9-0.6,3.3-1.8,4.4c-1.2,1.1-2.8,1.6-4.9,1.6s-3.7-0.5-4.9-1.6c-1.2-1.1-1.8-2.6-1.8-4.4
		V22.4h3.4v9.7c0,1,0.3,1.9,0.8,2.4c0.6,0.6,1.4,0.9,2.4,0.9c1,0,1.8-0.3,2.4-0.9c0.6-0.6,0.8-1.4,0.8-2.4v-9.7H296.7z"/>
	<path class="st1" d="M305.9,32.8h-1.8v5.4h-3.4V22.4h5.1c1.9,0,3.3,0.5,4.4,1.4c1.1,0.9,1.6,2.2,1.6,3.9s-0.5,3-1.6,3.9
		C309.3,32.4,307.8,32.8,305.9,32.8z M306,25.2h-1.8V30h1.9c0.8,0,1.4-0.2,1.8-0.6c0.4-0.4,0.7-1,0.7-1.7c0-0.8-0.2-1.4-0.7-1.8
		C307.4,25.5,306.8,25.2,306,25.2z"/>
	<path class="st1" d="M319,38.6c-1.8,0-3.3-0.3-4.7-0.9v-3.3c1.3,0.7,2.6,1.1,4,1.1c0.5,0,1,0,1.4-0.1c1.3-0.2,1.9-0.7,1.9-1.4
		c0-0.5-0.2-0.9-0.7-1.3c-0.5-0.3-1.3-0.7-2.4-1.1c-1.5-0.6-2.6-1.2-3.3-1.9c-0.7-0.7-1.1-1.7-1.1-3c0-1.4,0.5-2.5,1.6-3.4
		c1.1-0.8,2.4-1.3,4.2-1.3c1.6,0,2.9,0.3,4.1,0.8V26c-1.1-0.6-2.4-1-3.9-1c-0.8,0-1.5,0.2-2,0.5c-0.5,0.3-0.7,0.7-0.7,1.2
		c0,0.5,0.2,0.9,0.7,1.2s1.2,0.7,2.3,1.2c1.5,0.6,2.7,1.3,3.4,2c0.7,0.7,1.1,1.7,1.1,2.9c0,1.4-0.5,2.6-1.6,3.4
		C322.3,38.2,320.9,38.6,319,38.6z"/>
	<path class="st1" d="M327.3,36.8c0-0.5,0.2-1,0.5-1.3c0.3-0.3,0.8-0.5,1.3-0.5s1,0.2,1.3,0.5c0.3,0.3,0.5,0.8,0.5,1.3
		c0,0.5-0.2,1-0.5,1.3c-0.3,0.3-0.8,0.5-1.3,0.5c-0.6,0-1-0.2-1.3-0.5S327.3,37.3,327.3,36.8z"/>
</g>
</svg>
