<?xml version="1.0" encoding="utf-8"?>
<!-- Generator: Adobe Illustrator 22.1.0, SVG Export Plug-In . SVG Version: 6.00 Build 0)  -->
<svg version="1.1" id="Layer_1" xmlns="http://www.w3.org/2000/svg" xmlns:xlink="http://www.w3.org/1999/xlink" x="0px" y="0px"
	 viewBox="0 0 215 40" style="enable-background:new 0 0 215 40;" xml:space="preserve">
<style type="text/css">
	.st0{enable-background:new    ;}
	.st1{fill:#515151;}
</style>
<g class="st0">
	<path class="st1" d="M36.6,2.1v10.1c0,1.9-0.6,3.3-1.8,4.4s-2.8,1.6-4.9,1.6c-2.1,0-3.7-0.5-4.9-1.6s-1.8-2.6-1.8-4.4V2.1h3.4v9.7
		c0,1,0.3,1.9,0.8,2.4c0.6,0.6,1.4,0.9,2.4,0.9c1,0,1.8-0.3,2.4-0.9c0.6-0.6,0.8-1.4,0.8-2.4V2.1H36.6z"/>
	<path class="st1" d="M45.8,17.9h-5.1V2.1h5.1c2.7,0,4.8,0.7,6.4,2.2c1.6,1.5,2.4,3.4,2.4,5.7s-0.8,4.3-2.4,5.7
		C50.6,17.2,48.5,17.9,45.8,17.9z M45.7,4.9h-1.6v10.2h1.7c1.7,0,3-0.5,3.9-1.4c1-1,1.5-2.2,1.5-3.7c0-1.5-0.5-2.7-1.5-3.6
		C48.7,5.4,47.4,4.9,45.7,4.9z"/>
	<path class="st1" d="M70.9,2.1v10.1c0,1.9-0.6,3.3-1.8,4.4s-2.8,1.6-4.9,1.6c-2.1,0-3.7-0.5-4.9-1.6s-1.8-2.6-1.8-4.4V2.1h3.4v9.7
		c0,1,0.3,1.9,0.8,2.4c0.6,0.6,1.4,0.9,2.4,0.9c1,0,1.8-0.3,2.4-0.9c0.6-0.6,0.8-1.4,0.8-2.4V2.1H70.9z"/>
	<path class="st1" d="M80.1,12.5h-1.8v5.4H75V2.1h5.1c1.9,0,3.3,0.5,4.4,1.4c1.1,0.9,1.6,2.2,1.6,3.9s-0.5,3-1.6,3.9
		C83.5,12.1,82,12.5,80.1,12.5z M80.2,4.9h-1.8v4.7h1.9c0.8,0,1.4-0.2,1.8-0.6c0.4-0.4,0.7-1,0.7-1.7c0-0.8-0.2-1.4-0.7-1.8
		C81.6,5.1,81,4.9,80.2,4.9z"/>
	<path class="st1" d="M92.6,17.9h-3.4V2.1h3.4V17.9z"/>
	<path class="st1" d="M113.7,2.9V6c-1.4-0.7-2.9-1.1-4.4-1.1c-1.6,0-2.8,0.5-3.8,1.5c-1,1-1.4,2.2-1.4,3.7s0.5,2.7,1.4,3.7
		s2.2,1.5,3.7,1.5c1.6,0,3.2-0.4,4.6-1.1v3.1c-1.3,0.7-2.9,1.1-4.8,1.1c-2.4,0-4.3-0.8-5.9-2.4c-1.6-1.6-2.4-3.5-2.4-5.9
		s0.8-4.3,2.4-5.9c1.6-1.6,3.6-2.4,6-2.4C110.9,1.8,112.4,2.1,113.7,2.9z"/>
	<path class="st1" d="M116.1,10c0-2.3,0.8-4.3,2.4-5.8c1.6-1.6,3.6-2.4,5.9-2.4c2.4,0,4.3,0.8,5.9,2.4c1.6,1.6,2.4,3.5,2.4,5.8
		c0,2.3-0.8,4.3-2.4,5.9c-1.6,1.6-3.6,2.4-5.9,2.4s-4.4-0.8-5.9-2.4C116.9,14.3,116.1,12.3,116.1,10z M119.5,10
		c0,1.4,0.5,2.7,1.4,3.6c0.9,1,2.1,1.5,3.5,1.5c1.4,0,2.6-0.5,3.5-1.5c0.9-1,1.4-2.2,1.4-3.6c0-1.4-0.5-2.6-1.4-3.6
		c-0.9-1-2.1-1.5-3.5-1.5c-1.4,0-2.6,0.5-3.5,1.5S119.5,8.6,119.5,10z"/>
	<path class="st1" d="M148.6,2.9V6c-1.4-0.7-2.9-1.1-4.4-1.1c-1.6,0-2.8,0.5-3.8,1.5c-1,1-1.4,2.2-1.4,3.7s0.5,2.7,1.4,3.7
		s2.2,1.5,3.7,1.5c1.6,0,3.2-0.4,4.6-1.1v3.1c-1.3,0.7-2.9,1.1-4.8,1.1c-2.4,0-4.3-0.8-5.9-2.4c-1.6-1.6-2.4-3.5-2.4-5.9
		s0.8-4.3,2.4-5.9c1.6-1.6,3.6-2.4,6-2.4C145.7,1.8,147.2,2.1,148.6,2.9z"/>
	<path class="st1" d="M165.2,17.9h-3.4v-6.6h-6.5v6.6h-3.4V2.1h3.4v6.4h6.5V2.1h3.4V17.9z"/>
	<path class="st1" d="M172.9,17.9h-3.4V2.1h3.4V17.9z"/>
	<path class="st1" d="M190.4,18.2h-0.1l-8.7-8.3l-1-0.9v9h-3.3V1.8h0.1l8.7,8.3l1,0.9v-9h3.3V18.2z"/>
</g>
<g class="st0">
	<path class="st1" d="M8.3,38.2c-1.8,0-3.3-0.3-4.7-0.9v-3.3c1.3,0.7,2.6,1.1,4,1.1c0.5,0,1,0,1.4-0.1c1.3-0.2,1.9-0.7,1.9-1.4
		c0-0.5-0.2-0.9-0.7-1.3c-0.5-0.3-1.3-0.7-2.4-1.1c-1.5-0.6-2.6-1.2-3.3-1.9c-0.7-0.7-1.1-1.7-1.1-3c0-1.4,0.5-2.5,1.6-3.4
		c1.1-0.8,2.4-1.3,4.2-1.3c1.6,0,2.9,0.3,4.1,0.8v3.1c-1.1-0.6-2.4-1-3.9-1c-0.8,0-1.5,0.2-2,0.5c-0.5,0.3-0.7,0.7-0.7,1.2
		c0,0.5,0.2,0.9,0.7,1.2s1.2,0.7,2.3,1.2c1.5,0.6,2.7,1.3,3.4,2c0.7,0.7,1.1,1.7,1.1,2.9c0,1.4-0.5,2.6-1.6,3.4
		C11.6,37.8,10.1,38.2,8.3,38.2z"/>
	<path class="st1" d="M30.7,37.9h-3.4v-6.6h-6.5v6.6h-3.4V22.1h3.4v6.4h6.5v-6.4h3.4V37.9z"/>
	<path class="st1" d="M38.4,37.9H35V22.1h3.4V37.9z"/>
	<path class="st1" d="M47.8,32.5h-1.8v5.4h-3.4V22.1h5.1c1.9,0,3.3,0.5,4.4,1.4c1.1,0.9,1.6,2.2,1.6,3.9s-0.5,3-1.6,3.9
		C51.2,32.1,49.7,32.5,47.8,32.5z M47.9,24.9h-1.8v4.7H48c0.8,0,1.4-0.2,1.8-0.6c0.4-0.4,0.7-1,0.7-1.7c0-0.8-0.2-1.4-0.7-1.8
		C49.3,25.1,48.7,24.9,47.9,24.9z"/>
	<path class="st1" d="M54.7,22.1h3.8l3.6,6.5l3.6-6.5h3.8l-5.8,9.7v6.1h-3.4v-6.1L54.7,22.1z"/>
	<path class="st1" d="M67.8,37.9l7.7-16.1h0.1l7.7,16.1h-3.5l-1.3-2.8h-5.9l-1.2,2.8H67.8z M73.6,32.8h3.9c-0.9-2-1.5-3.5-1.9-4.7
		c0,0.1-0.3,0.7-0.8,2S73.9,32.2,73.6,32.8z"/>
	<path class="st1" d="M85.8,22.1h5.6c1.9,0,3.4,0.5,4.5,1.4c1.1,0.9,1.7,2.2,1.7,3.8c0,1.1-0.3,2-0.8,2.8c-0.5,0.8-1.3,1.3-2.2,1.7
		l3.3,6.1h-3.6l-2.8-5.5h-2.3v5.5h-3.3V22.1z M91.5,24.9h-2.3v4.7h2.4c0.8,0,1.4-0.2,1.8-0.6c0.5-0.4,0.7-1,0.7-1.8
		s-0.2-1.4-0.7-1.8C92.9,25.1,92.2,24.9,91.5,24.9z"/>
	<path class="st1" d="M106.1,37.9H101V22.1h5.1c2.7,0,4.8,0.7,6.4,2.2c1.6,1.5,2.4,3.4,2.4,5.7s-0.8,4.3-2.4,5.7
		C110.9,37.2,108.8,37.9,106.1,37.9z M106.1,24.9h-1.6v10.2h1.7c1.7,0,3-0.5,3.9-1.4c1-1,1.5-2.2,1.5-3.7c0-1.5-0.5-2.7-1.5-3.6
		C109.1,25.4,107.7,24.9,106.1,24.9z"/>
	<path class="st1" d="M132.5,37.9H123V22.1h3.4v13h6.1V37.9z"/>
	<path class="st1" d="M138.9,37.9h-3.4V22.1h3.4V37.9z"/>
	<path class="st1" d="M150.8,33.5c-0.4-0.4-0.7-0.8-1.1-1.2c-0.4-0.4-0.8-0.9-1.3-1.4s-0.8-0.9-1.1-1.2l-0.8-0.7v8.9h-3.2V21.8h0.1
		l7.5,7.6l7.5-7.6h0.1v16.1h-3.2V29l-0.8,0.7C153.2,31,152,32.3,150.8,33.5z"/>
	<path class="st1" d="M166.1,37.9h-3.4V22.1h3.4V37.9z"/>
	<path class="st1" d="M181.2,24.9h-4.4v13h-3.4v-13h-4.4v-2.8h12.3V24.9z"/>
	<path class="st1" d="M194.5,37.9H184V22.1h10.2v2.8h-6.8v3.6h5.8v2.7h-5.8v3.8h7.1V37.9z"/>
	<path class="st1" d="M202.9,37.9h-5.1V22.1h5.1c2.7,0,4.8,0.7,6.4,2.2s2.4,3.4,2.4,5.7s-0.8,4.3-2.4,5.7
		C207.7,37.2,205.6,37.9,202.9,37.9z M202.8,24.9h-1.6v10.2h1.7c1.7,0,3-0.5,3.9-1.4c1-1,1.5-2.2,1.5-3.7c0-1.5-0.5-2.7-1.5-3.6
		C205.8,25.4,204.5,24.9,202.8,24.9z"/>
</g>
</svg>
