<?xml version="1.0" encoding="utf-8"?>
<!-- Generator: Adobe Illustrator 22.1.0, SVG Export Plug-In . SVG Version: 6.00 Build 0)  -->
<svg version="1.1" id="Layer_1" xmlns="http://www.w3.org/2000/svg" xmlns:xlink="http://www.w3.org/1999/xlink" x="0px" y="0px"
height="40px" width="180px"
	 viewBox="0 0 190 40" style="enable-background:new 0 0 190 40;" xml:space="preserve">
<style type="text/css">
	.st0{fill:#515151;}
</style>
<g>
	<path class="st0" d="M23.4,7.7h2.7c0.5,0,0.9-0.1,1.3-0.2c0.4-0.2,0.7-0.4,0.9-0.7c0.2-0.3,0.3-0.7,0.3-1.1c0-0.6-0.2-1.1-0.7-1.5
		c-0.4-0.3-1-0.5-1.8-0.5h-1.9v11.4h2.2c0.6,0,1.1-0.1,1.6-0.3c0.5-0.2,0.8-0.4,1.1-0.8c0.3-0.4,0.4-0.8,0.4-1.4
		c0-0.4-0.1-0.8-0.2-1.1c-0.2-0.3-0.4-0.5-0.7-0.7c-0.3-0.2-0.6-0.3-1-0.4c-0.4-0.1-0.8-0.1-1.2-0.1h-3.1V8.4h3.4
		c0.8,0,1.6,0.1,2.3,0.3c0.7,0.2,1.4,0.5,2,0.8c0.6,0.4,1.1,0.9,1.4,1.5c0.3,0.6,0.5,1.3,0.5,2.1c0,1.1-0.3,2-0.8,2.7
		c-0.5,0.7-1.3,1.2-2.2,1.6c-0.9,0.3-2,0.5-3.3,0.5h-6V1h5.6c1.1,0,2.1,0.2,3,0.5c0.9,0.3,1.5,0.8,2,1.4c0.5,0.6,0.7,1.4,0.7,2.4
		c0,0.9-0.2,1.6-0.7,2.2c-0.5,0.6-1.1,1.1-2,1.4c-0.9,0.3-1.8,0.5-3,0.5h-3V7.7z"/>
	<path class="st0" d="M39.4,1v13.8h6.7v3H36V1H39.4z"/>
	<path class="st0" d="M51.5,1v11.1c0,1,0.3,1.7,0.8,2.3c0.5,0.6,1.3,0.9,2.3,0.9c1,0,1.7-0.3,2.3-0.9c0.5-0.6,0.8-1.4,0.8-2.3V1h3.4
		v11.3c0,1-0.2,1.9-0.5,2.6c-0.3,0.8-0.8,1.4-1.4,1.9c-0.6,0.5-1.3,0.9-2.1,1.2c-0.8,0.3-1.6,0.4-2.6,0.4c-0.9,0-1.8-0.1-2.6-0.4
		c-0.8-0.3-1.5-0.7-2-1.2c-0.6-0.5-1-1.1-1.3-1.9c-0.3-0.8-0.5-1.6-0.5-2.6V1H51.5z"/>
	<path class="st0" d="M67.8,1v16.9h-3.3V1H67.8z M66.7,1h8.5v2.9h-8.5V1z M66.7,7.5h8v2.9h-8V7.5z M66.7,14.9h8.5v2.9h-8.5V14.9z"/>
	<path class="st0" d="M104.8,1h4l-7.1,17.8L96.5,7.7l-5.3,11.1L84.1,1h4l3.7,10.5l4.7-11.3l4.7,11.3L104.8,1z"/>
	<path class="st0" d="M114.3,1v16.9h-3.4V1H114.3z M112,7.3h12.4v3.1H112V7.3z M125.6,1v16.9h-3.4V1H125.6z"/>
	<path class="st0" d="M133.4,12.3l0.1,0.8l-2.2,4.8h-3.9L136,0l8.5,17.8h-3.9l-2.2-4.7l0-0.9L136,6.5L133.4,12.3z M132,11.3h8.1
		l0.4,2.7h-8.9L132,11.3z"/>
	<path class="st0" d="M149.8,1v13.8h6.7v3h-10.2V1H149.8z"/>
	<path class="st0" d="M161.8,1v16.9h-3.3V1H161.8z M160.7,1h8.5v2.9h-8.5V1z M160.7,7.5h8v2.9h-8V7.5z M160.7,14.9h8.5v2.9h-8.5
		V14.9z"/>
	<path class="st0" d="M41.9,40h-3.6l2.5-17.7l7.1,10.9l7.1-10.9L57.4,40h-3.6l-1.1-9.5l-4.9,7.9L43,30.5L41.9,40z"/>
	<path class="st0" d="M64.3,34.4l0.1,0.8L62.2,40h-3.9l8.5-17.8L75.4,40h-3.9l-2.2-4.7l0-0.9l-2.5-5.9L64.3,34.4z M62.8,33.5h8.1
		l0.4,2.7h-8.9L62.8,33.5z"/>
	<path class="st0" d="M80.7,23.1V40h-3.4V23.1H80.7z M79.3,23.1h3.6c1.3,0,2.5,0.2,3.4,0.7c0.9,0.4,1.6,1.1,2.1,1.9
		c0.5,0.8,0.7,1.7,0.7,2.8c0,1.1-0.2,2-0.7,2.8c-0.5,0.8-1.2,1.4-2.1,1.9c-0.9,0.4-2.1,0.7-3.4,0.7h-3.6v-2.7h3.3
		c0.6,0,1.1-0.1,1.6-0.3c0.4-0.2,0.8-0.5,1-0.9s0.4-0.8,0.4-1.4c0-0.5-0.1-1-0.4-1.4c-0.2-0.4-0.6-0.7-1-0.9c-0.4-0.2-1-0.3-1.6-0.3
		h-3.3V23.1z M84.7,32.2l5.5,7.8h-4.1L81,32.2H84.7z"/>
	<path class="st0" d="M95.6,23.1V40h-3.5V23.1H95.6z"/>
	<path class="st0" d="M97.6,23.1h12.5v3.1h-4.6V40h-3.4V26.3h-4.5V23.1z"/>
	<path class="st0" d="M115.5,23.1V40h-3.5V23.1H115.5z"/>
	<path class="st0" d="M121.8,40h-3.6l2.5-17.7l7.1,10.9l7.1-10.9l2.5,17.7h-3.6l-1.1-9.5l-4.9,7.9l-4.9-7.9L121.8,40z"/>
	<path class="st0" d="M143.4,23.1V40H140V23.1H143.4z M142.2,23.1h8.5v2.9h-8.5V23.1z M142.2,29.6h8v2.9h-8V29.6z M142.2,37.1h8.5
		V40h-8.5V37.1z"/>
</g>
</svg>
