<?xml version="1.0" encoding="utf-8"?>
<!-- Generator: Adobe Illustrator 22.1.0, SVG Export Plug-In . SVG Version: 6.00 Build 0)  -->
<svg version="1.1" id="Layer_1" xmlns="http://www.w3.org/2000/svg" xmlns:xlink="http://www.w3.org/1999/xlink" x="0px" y="0px"
height="40px" width="180px"
	 viewBox="0 0 190 40" style="enable-background:new 0 0 190 40;" xml:space="preserve">
<style type="text/css">
	.st0{fill:#515151;}
</style>
<g>
	<path class="st0" d="M4.7,0.8v16.6H1.4V0.8H4.7z M3.6,0.8H11v3H3.6V0.8z M3.6,7.5h7.2v2.8H3.6V7.5z"/>
	<path class="st0" d="M17.5,0.8v16.6h-3.4V0.8H17.5z M16.2,0.8h3.5C21,0.8,22.1,1,23,1.5c0.9,0.4,1.6,1.1,2.1,1.8
		c0.5,0.8,0.7,1.7,0.7,2.8c0,1-0.2,2-0.7,2.8c-0.5,0.8-1.2,1.4-2.1,1.9c-0.9,0.4-2,0.7-3.3,0.7h-3.5V8.7h3.3c0.6,0,1.1-0.1,1.5-0.3
		c0.4-0.2,0.8-0.5,1-0.9c0.2-0.4,0.4-0.8,0.4-1.3c0-0.5-0.1-1-0.4-1.3c-0.2-0.4-0.6-0.7-1-0.9c-0.4-0.2-1-0.3-1.5-0.3h-3.3V0.8z
		 M21.4,9.7l5.4,7.7h-4l-5-7.7H21.4z"/>
	<path class="st0" d="M28.5,5.6c0.4-1,1.1-2,1.8-2.7c0.8-0.8,1.7-1.4,2.8-1.8c1.1-0.4,2.2-0.6,3.5-0.6c1.3,0,2.4,0.2,3.5,0.6
		c1.1,0.4,2,1,2.8,1.8c0.8,0.8,1.4,1.7,1.8,2.7c0.4,1,0.7,2.2,0.7,3.5c0,1.2-0.2,2.4-0.7,3.5c-0.4,1.1-1,2-1.8,2.8
		c-0.8,0.8-1.7,1.4-2.8,1.8c-1.1,0.4-2.2,0.7-3.5,0.7c-1.3,0-2.4-0.2-3.5-0.7c-1.1-0.4-2-1-2.8-1.8c-0.8-0.8-1.4-1.7-1.8-2.8
		s-0.6-2.2-0.6-3.5C27.8,7.8,28.1,6.7,28.5,5.6z M32.1,11.9c0.4,0.8,1,1.5,1.8,1.9c0.8,0.5,1.7,0.7,2.7,0.7c1,0,1.9-0.2,2.7-0.7
		c0.8-0.5,1.4-1.1,1.8-1.9c0.4-0.8,0.7-1.8,0.7-2.8c0-1.1-0.2-2-0.6-2.8c-0.4-0.8-1-1.5-1.8-1.9c-0.8-0.5-1.7-0.7-2.7-0.7
		c-1,0-1.9,0.2-2.7,0.7c-0.8,0.5-1.4,1.1-1.8,1.9c-0.4,0.8-0.7,1.8-0.7,2.8C31.4,10.2,31.6,11.1,32.1,11.9z"/>
	<path class="st0" d="M63,0.8v17.4L51.2,7.1v10.3H48V0l11.8,11.1V0.8H63z"/>
	<path class="st0" d="M65,0.8h12.3v3.1h-4.5v13.5h-3.4V3.9H65V0.8z"/>
	<path class="st0" d="M82.6,0.8v13.6h6.6v3h-10V0.8H82.6z"/>
	<path class="st0" d="M94.5,0.8v16.6h-3.4V0.8H94.5z"/>
	<path class="st0" d="M113.2,0.8v17.4L101.4,7.1v10.3h-3.3V0l11.8,11.1V0.8H113.2z"/>
	<path class="st0" d="M120,0.8v16.6h-3.3V0.8H120z M118.9,0.8h8.4v2.9h-8.4V0.8z M118.9,7.2h7.9V10h-7.9V7.2z M118.9,14.5h8.4v2.9
		h-8.4V14.5z"/>
	<path class="st0" d="M140.3,13.4c0.4,0.5,0.9,0.8,1.4,1.1c0.5,0.3,1,0.4,1.6,0.4c0.7,0,1.2-0.2,1.7-0.5c0.4-0.3,0.6-0.8,0.6-1.4
		c0-0.5-0.1-0.9-0.4-1.3c-0.3-0.3-0.6-0.6-1.2-0.8c-0.5-0.2-1.1-0.5-1.9-0.8c-0.4-0.1-0.8-0.3-1.4-0.6c-0.5-0.2-1-0.6-1.5-0.9
		c-0.5-0.4-0.8-0.9-1.1-1.4c-0.3-0.6-0.4-1.2-0.4-2c0-0.9,0.2-1.8,0.7-2.4c0.5-0.7,1.1-1.2,2-1.6s1.8-0.6,2.8-0.6
		c1.1,0,2,0.2,2.7,0.5c0.8,0.4,1.4,0.8,1.9,1.3c0.5,0.5,0.9,1.1,1.2,1.7l-2.7,1.5c-0.2-0.4-0.5-0.8-0.8-1.1
		c-0.3-0.3-0.7-0.6-1.1-0.8c-0.4-0.2-0.8-0.3-1.3-0.3c-0.7,0-1.2,0.2-1.5,0.5c-0.3,0.3-0.5,0.7-0.5,1.1c0,0.4,0.1,0.8,0.4,1.1
		c0.3,0.3,0.7,0.6,1.2,0.9c0.6,0.3,1.2,0.6,2.1,0.8c0.5,0.2,1.1,0.4,1.6,0.7c0.5,0.3,0.9,0.6,1.3,1c0.4,0.4,0.7,0.9,0.9,1.4
		c0.2,0.5,0.3,1.2,0.3,1.9c0,0.8-0.2,1.5-0.5,2.2c-0.3,0.6-0.7,1.2-1.3,1.6c-0.6,0.4-1.2,0.8-1.9,1c-0.7,0.2-1.4,0.3-2.2,0.3
		c-1,0-2-0.2-2.8-0.6c-0.9-0.4-1.6-0.9-2.3-1.6c-0.6-0.7-1.2-1.4-1.5-2.2l2.4-1.7C139.5,12.4,139.9,13,140.3,13.4z"/>
	<path class="st0" d="M155.3,0.8v16.6h-3.4V0.8H155.3z M153.1,7.1h12.2v3.1h-12.2V7.1z M166.4,0.8v16.6h-3.4V0.8H166.4z"/>
	<path class="st0" d="M173.5,0.8v16.6H170V0.8H173.5z"/>
	<path class="st0" d="M180.4,0.8v16.6H177V0.8H180.4z M179.1,0.8h3.3c1.3,0,2.4,0.2,3.3,0.6c0.9,0.4,1.6,1,2.1,1.8
		c0.5,0.8,0.7,1.7,0.7,2.8c0,1.1-0.2,2-0.7,2.8c-0.5,0.8-1.2,1.4-2.1,1.8c-0.9,0.4-2,0.6-3.3,0.6h-3.3V8.5h3.3
		c0.9,0,1.6-0.2,2.1-0.6c0.5-0.4,0.8-1,0.8-1.8c0-0.8-0.3-1.4-0.8-1.8c-0.5-0.4-1.2-0.6-2.1-0.6h-3.3V0.8z"/>
	<path class="st0" d="M13.6,39.2h-3.5l2.5-17.4l6.9,10.7l6.9-10.7l2.5,17.4h-3.5l-1.1-9.3l-4.8,7.8l-4.8-7.8L13.6,39.2z"/>
	<path class="st0" d="M35.7,33.7l0.1,0.8l-2.2,4.7h-3.8l8.4-17.5l8.4,17.5h-3.8l-2.1-4.6l0-0.9L38.2,28L35.7,33.7z M34.3,32.7h8
		l0.4,2.7h-8.8L34.3,32.7z"/>
	<path class="st0" d="M63.4,22.6V40L51.7,28.9v10.3h-3.3V21.8l11.8,11.1V22.6H63.4z"/>
	<path class="st0" d="M71.2,33.7l0.1,0.8l-2.2,4.7h-3.8l8.4-17.5l8.4,17.5h-3.8l-2.1-4.6l0-0.9L73.7,28L71.2,33.7z M69.7,32.7h8
		l0.4,2.7h-8.8L69.7,32.7z"/>
	<path class="st0" d="M91.2,30.3h8.2c0,1.3-0.1,2.5-0.4,3.6c-0.3,1.1-0.9,2.1-1.6,3c-0.7,0.9-1.6,1.5-2.7,2
		c-1.1,0.5-2.3,0.7-3.6,0.7c-1.3,0-2.5-0.2-3.5-0.6c-1.1-0.4-2-1-2.8-1.8c-0.8-0.8-1.4-1.7-1.8-2.8c-0.4-1.1-0.7-2.2-0.7-3.5
		c0-1.3,0.2-2.4,0.7-3.5c0.4-1.1,1.1-2,1.9-2.7c0.8-0.8,1.8-1.3,2.8-1.8c1.1-0.4,2.3-0.6,3.5-0.6c1.1,0,2.2,0.2,3.1,0.5
		c0.9,0.3,1.7,0.8,2.4,1.3c0.7,0.6,1.3,1.2,1.8,2l-2.9,1.7c-0.4-0.7-1-1.3-1.7-1.8c-0.7-0.4-1.6-0.7-2.7-0.7c-1,0-1.9,0.2-2.7,0.7
		c-0.8,0.4-1.5,1.1-2,1.9c-0.5,0.8-0.7,1.8-0.7,3c0,1.1,0.2,2.1,0.7,3c0.5,0.9,1.1,1.5,1.9,2c0.8,0.5,1.7,0.7,2.8,0.7
		c0.7,0,1.3-0.1,1.8-0.3c0.5-0.2,1-0.4,1.4-0.8c0.4-0.3,0.7-0.7,1-1.1c0.3-0.4,0.5-0.9,0.6-1.4h-4.8V30.3z"/>
	<path class="st0" d="M105.4,22.6v16.6h-3.3V22.6H105.4z M104.3,22.6h8.4v2.9h-8.4V22.6z M104.3,29h7.9v2.8h-7.9V29z M104.3,36.3
		h8.4v2.9h-8.4V36.3z"/>
	<path class="st0" d="M118.6,39.2H115l2.5-17.4l6.9,10.7l6.9-10.7l2.5,17.4h-3.5l-1.1-9.3l-4.8,7.8l-4.8-7.8L118.6,39.2z"/>
	<path class="st0" d="M139.7,22.6v16.6h-3.3V22.6H139.7z M138.7,22.6h8.4v2.9h-8.4V22.6z M138.7,29h7.9v2.8h-7.9V29z M138.7,36.3
		h8.4v2.9h-8.4V36.3z"/>
	<path class="st0" d="M165.4,22.6V40l-11.8-11.1v10.3h-3.3V21.8l11.8,11.1V22.6H165.4z"/>
	<path class="st0" d="M167.3,22.6h12.3v3.1h-4.5v13.5h-3.4V25.7h-4.4V22.6z"/>
</g>
</svg>
