<?xml version="1.0" encoding="utf-8"?>
<!-- Generator: Adobe Illustrator 22.1.0, SVG Export Plug-In . SVG Version: 6.00 Build 0)  -->
<svg version="1.1" id="Layer_1" xmlns="http://www.w3.org/2000/svg" xmlns:xlink="http://www.w3.org/1999/xlink" x="0px" y="0px"
height="40px" width="180px"
	 viewBox="0 0 190 40" style="enable-background:new 0 0 190 40;" xml:space="preserve">
<style type="text/css">
	.st0{fill:#515151;}
</style>
<g>
	<path class="st0" d="M14.3,13.5c0.4,0.5,0.9,0.8,1.4,1.1c0.5,0.3,1,0.4,1.6,0.4c0.7,0,1.2-0.2,1.7-0.5c0.4-0.3,0.6-0.8,0.6-1.4
		c0-0.5-0.1-0.9-0.4-1.2c-0.3-0.3-0.6-0.6-1.2-0.8c-0.5-0.2-1.1-0.5-1.9-0.8c-0.4-0.1-0.8-0.3-1.4-0.6c-0.5-0.2-1-0.6-1.5-0.9
		c-0.5-0.4-0.8-0.9-1.1-1.4c-0.3-0.6-0.4-1.2-0.4-2c0-0.9,0.2-1.8,0.7-2.4c0.5-0.7,1.1-1.2,2-1.6c0.8-0.4,1.7-0.6,2.8-0.6
		c1.1,0,2,0.2,2.7,0.5c0.8,0.4,1.4,0.8,1.9,1.3c0.5,0.5,0.9,1.1,1.2,1.7l-2.6,1.5c-0.2-0.4-0.5-0.8-0.8-1.1c-0.3-0.3-0.7-0.6-1-0.8
		c-0.4-0.2-0.8-0.3-1.3-0.3c-0.7,0-1.2,0.2-1.5,0.5c-0.3,0.3-0.5,0.7-0.5,1.1c0,0.4,0.1,0.8,0.4,1.1c0.3,0.3,0.7,0.6,1.2,0.9
		c0.6,0.3,1.2,0.6,2.1,0.8c0.5,0.2,1,0.4,1.5,0.7c0.5,0.3,0.9,0.6,1.3,1c0.4,0.4,0.7,0.9,0.9,1.4c0.2,0.5,0.3,1.2,0.3,1.9
		c0,0.8-0.2,1.5-0.5,2.1c-0.3,0.6-0.7,1.2-1.3,1.6c-0.6,0.4-1.2,0.8-1.9,1c-0.7,0.2-1.4,0.3-2.2,0.3c-1,0-1.9-0.2-2.8-0.6
		c-0.9-0.4-1.6-0.9-2.3-1.6c-0.6-0.7-1.1-1.4-1.5-2.1l2.4-1.7C13.5,12.5,13.9,13.1,14.3,13.5z"/>
	<path class="st0" d="M29.1,1v16.5h-3.3V1H29.1z M28,1h8.3v2.9H28V1z M28,7.3h7.9v2.8H28V7.3z M28,14.6h8.3v2.9H28V14.6z"/>
	<path class="st0" d="M50.7,1h3.9l-8.4,17.5L37.9,1h3.9l4.5,10.8L50.7,1z"/>
	<path class="st0" d="M59.7,1v16.5h-3.3V1H59.7z M58.6,1h8.3v2.9h-8.3V1z M58.6,7.3h7.9v2.8h-7.9V7.3z M58.6,14.6h8.3v2.9h-8.3V14.6
		z"/>
	<path class="st0" d="M85.3,1v17.3L73.5,7.2v10.2h-3.3V0.1L82,11.2V1H85.3z"/>
	<path class="st0" d="M99.3,1v16.5h-3.4V1H99.3z"/>
	<path class="st0" d="M105.5,13.5c0.4,0.5,0.9,0.8,1.4,1.1c0.5,0.3,1,0.4,1.6,0.4c0.7,0,1.2-0.2,1.7-0.5c0.4-0.3,0.6-0.8,0.6-1.4
		c0-0.5-0.1-0.9-0.4-1.2c-0.3-0.3-0.6-0.6-1.2-0.8c-0.5-0.2-1.1-0.5-1.9-0.8c-0.4-0.1-0.8-0.3-1.4-0.6c-0.5-0.2-1-0.6-1.5-0.9
		c-0.5-0.4-0.8-0.9-1.1-1.4c-0.3-0.6-0.4-1.2-0.4-2c0-0.9,0.2-1.8,0.7-2.4c0.5-0.7,1.1-1.2,2-1.6c0.8-0.4,1.7-0.6,2.8-0.6
		c1.1,0,2,0.2,2.7,0.5c0.8,0.4,1.4,0.8,1.9,1.3c0.5,0.5,0.9,1.1,1.2,1.7l-2.6,1.5c-0.2-0.4-0.5-0.8-0.8-1.1c-0.3-0.3-0.7-0.6-1-0.8
		c-0.4-0.2-0.8-0.3-1.3-0.3c-0.7,0-1.2,0.2-1.5,0.5c-0.3,0.3-0.5,0.7-0.5,1.1c0,0.4,0.1,0.8,0.4,1.1c0.3,0.3,0.7,0.6,1.2,0.9
		c0.6,0.3,1.2,0.6,2.1,0.8c0.5,0.2,1,0.4,1.5,0.7c0.5,0.3,0.9,0.6,1.3,1c0.4,0.4,0.7,0.9,0.9,1.4c0.2,0.5,0.3,1.2,0.3,1.9
		c0,0.8-0.2,1.5-0.5,2.1c-0.3,0.6-0.7,1.2-1.3,1.6c-0.6,0.4-1.2,0.8-1.9,1c-0.7,0.2-1.4,0.3-2.2,0.3c-1,0-1.9-0.2-2.8-0.6
		c-0.9-0.4-1.6-0.9-2.3-1.6c-0.6-0.7-1.1-1.4-1.5-2.1l2.4-1.7C104.7,12.5,105.1,13.1,105.5,13.5z"/>
	<path class="st0" d="M120.4,1v13.6h6.6v2.9h-10V1H120.4z"/>
	<path class="st0" d="M133.8,12l0.1,0.8l-2.2,4.7h-3.8L136.3,0l8.4,17.5h-3.8l-2.1-4.6l0-0.8l-2.5-5.7L133.8,12z M132.3,11.1h7.9
		l0.4,2.7h-8.7L132.3,11.1z"/>
	<path class="st0" d="M161.4,1v17.3L149.7,7.2v10.2h-3.3V0.1l11.7,11.1V1H161.4z"/>
	<path class="st0" d="M168.4,1v16.5H165V1H168.4z M167.2,17.5v-3.1h3.3c0.7,0,1.4-0.1,2.1-0.3c0.6-0.2,1.2-0.5,1.7-0.9
		c0.5-0.4,0.9-1,1.1-1.6c0.3-0.7,0.4-1.4,0.4-2.3c0-0.9-0.1-1.7-0.4-2.3c-0.3-0.7-0.7-1.2-1.1-1.6c-0.5-0.4-1.1-0.7-1.7-0.9
		c-0.6-0.2-1.3-0.3-2.1-0.3h-3.3V1h3.4c1.7,0,3.2,0.3,4.5,1c1.3,0.7,2.3,1.6,3,2.9c0.7,1.2,1.1,2.7,1.1,4.4c0,1.7-0.4,3.1-1.1,4.4
		c-0.7,1.2-1.7,2.2-3,2.9c-1.3,0.7-2.8,1-4.5,1H167.2z"/>
	<path class="st0" d="M43.4,35.2c0.4,0.5,0.9,0.8,1.4,1.1c0.5,0.3,1,0.4,1.6,0.4c0.7,0,1.2-0.2,1.7-0.5c0.4-0.3,0.6-0.8,0.6-1.4
		c0-0.5-0.1-0.9-0.4-1.2c-0.3-0.3-0.6-0.6-1.2-0.8c-0.5-0.2-1.1-0.5-1.9-0.8c-0.4-0.1-0.8-0.3-1.4-0.6c-0.5-0.2-1-0.6-1.5-0.9
		c-0.5-0.4-0.8-0.9-1.1-1.4c-0.3-0.6-0.4-1.2-0.4-2c0-0.9,0.2-1.8,0.7-2.4c0.5-0.7,1.1-1.2,2-1.6c0.8-0.4,1.7-0.6,2.8-0.6
		c1.1,0,2,0.2,2.7,0.5c0.8,0.4,1.4,0.8,1.9,1.3c0.5,0.5,0.9,1.1,1.2,1.7l-2.6,1.5c-0.2-0.4-0.5-0.8-0.8-1.1c-0.3-0.3-0.7-0.6-1-0.8
		c-0.4-0.2-0.8-0.3-1.3-0.3c-0.7,0-1.2,0.2-1.5,0.5c-0.3,0.3-0.5,0.7-0.5,1.1c0,0.4,0.1,0.8,0.4,1.1c0.3,0.3,0.7,0.6,1.2,0.9
		c0.6,0.3,1.2,0.6,2.1,0.8c0.5,0.2,1,0.4,1.5,0.7c0.5,0.3,0.9,0.6,1.3,1c0.4,0.4,0.7,0.9,0.9,1.4c0.2,0.5,0.3,1.2,0.3,1.9
		c0,0.8-0.2,1.5-0.5,2.1c-0.3,0.6-0.7,1.2-1.3,1.6c-0.6,0.4-1.2,0.8-1.9,1c-0.7,0.2-1.4,0.3-2.2,0.3c-1,0-1.9-0.2-2.8-0.6
		c-0.9-0.4-1.6-0.9-2.3-1.6c-0.6-0.7-1.1-1.4-1.5-2.1l2.4-1.7C42.6,34.2,43,34.8,43.4,35.2z"/>
	<path class="st0" d="M58.4,22.7v16.5H55V22.7H58.4z M56.1,28.9h12.1v3H56.1V28.9z M69.5,22.7v16.5h-3.4V22.7H69.5z"/>
	<path class="st0" d="M76.5,22.7v16.5H73V22.7H76.5z"/>
	<path class="st0" d="M83.4,22.7v16.5H80V22.7H83.4z M82.1,22.7h3.3c1.3,0,2.4,0.2,3.3,0.6c0.9,0.4,1.6,1,2.1,1.8
		c0.5,0.8,0.7,1.7,0.7,2.8c0,1.1-0.2,2-0.7,2.8c-0.5,0.8-1.2,1.4-2.1,1.8c-0.9,0.4-2,0.6-3.3,0.6h-3.3v-2.9h3.3
		c0.9,0,1.6-0.2,2.1-0.6c0.5-0.4,0.8-1,0.8-1.8c0-0.8-0.3-1.4-0.8-1.8c-0.5-0.4-1.2-0.6-2.1-0.6h-3.3V22.7z"/>
	<path class="st0" d="M97.5,22.7v16.5h-3.4V22.7H97.5z M96.2,22.7h3.3c1.3,0,2.4,0.2,3.3,0.6c0.9,0.4,1.6,1,2.1,1.8
		c0.5,0.8,0.7,1.7,0.7,2.8c0,1.1-0.2,2-0.7,2.8c-0.5,0.8-1.2,1.4-2.1,1.8c-0.9,0.4-2,0.6-3.3,0.6h-3.3v-2.9h3.3
		c0.9,0,1.6-0.2,2.1-0.6c0.5-0.4,0.8-1,0.8-1.8c0-0.8-0.3-1.4-0.8-1.8c-0.5-0.4-1.2-0.6-2.1-0.6h-3.3V22.7z"/>
	<path class="st0" d="M111.7,22.7v16.5h-3.4V22.7H111.7z"/>
	<path class="st0" d="M130.2,22.7V40l-11.7-11.1v10.2h-3.3V21.8L127,32.9V22.7H130.2z"/>
	<path class="st0" d="M141.8,30.4h8.1c0,1.3-0.1,2.4-0.4,3.6c-0.3,1.1-0.9,2.1-1.6,3c-0.7,0.9-1.6,1.5-2.7,2
		c-1.1,0.5-2.3,0.7-3.6,0.7c-1.3,0-2.4-0.2-3.5-0.6c-1.1-0.4-2-1-2.8-1.8c-0.8-0.8-1.4-1.7-1.8-2.8c-0.4-1.1-0.6-2.2-0.6-3.5
		c0-1.3,0.2-2.4,0.7-3.5c0.4-1.1,1.1-2,1.9-2.7c0.8-0.8,1.7-1.3,2.8-1.7c1.1-0.4,2.3-0.6,3.5-0.6c1.1,0,2.1,0.2,3.1,0.5
		c0.9,0.3,1.7,0.8,2.4,1.3c0.7,0.6,1.3,1.2,1.8,2l-2.9,1.7c-0.4-0.7-1-1.3-1.7-1.8c-0.7-0.4-1.6-0.7-2.7-0.7c-1,0-1.9,0.2-2.7,0.7
		c-0.8,0.4-1.5,1.1-1.9,1.9c-0.5,0.8-0.7,1.8-0.7,3c0,1.1,0.2,2.1,0.7,3c0.5,0.9,1.1,1.5,1.9,2c0.8,0.5,1.7,0.7,2.7,0.7
		c0.7,0,1.3-0.1,1.8-0.3c0.5-0.2,1-0.4,1.4-0.8c0.4-0.3,0.7-0.7,1-1.1c0.3-0.4,0.5-0.9,0.6-1.4h-4.7V30.4z"/>
</g>
</svg>
